<?xml version="1.0" encoding="us-ascii" standalone="no"?><svg xmlns="http://www.w3.org/2000/svg" xmlns:xlink="http://www.w3.org/1999/xlink" contentStyleType="text/css" height="918px" preserveAspectRatio="none" style="width:1021px;height:918px;background:#FFFFFF;" version="1.1" viewBox="0 0 1021 918" width="1021px" zoomAndPan="magnify"><defs/><g><rect fill="none" height="22.6406" style="stroke:none;stroke-width:1.0;" width="988.5" x="15" y="12.4551"/><ellipse cx="179" cy="50.0957" fill="#222222" rx="10" ry="10" style="stroke:#222222;stroke-width:1.0;"/><rect fill="#F1F1F1" height="35.0938" rx="12.5" ry="12.5" style="stroke:#181818;stroke-width:0.5;" width="172" x="93" y="80.0957"/><text fill="#000000" font-family="sans-serif" font-size="12" lengthAdjust="spacing" textLength="152" x="103" y="102.5527">Solicita crear nuevo usuario</text><rect fill="#F1F1F1" height="35.0938" rx="12.5" ry="12.5" style="stroke:#181818;stroke-width:0.5;" width="316" x="21" y="135.1895"/><text fill="#000000" font-family="sans-serif" font-size="12" lengthAdjust="spacing" textLength="296" x="31" y="157.6465">Ingresa datos del empleado (nombre, apellido, cargo)</text><rect fill="#F1F1F1" height="35.0938" rx="12.5" ry="12.5" style="stroke:#181818;stroke-width:0.5;" width="287" x="35.5" y="190.2832"/><text fill="#000000" font-family="sans-serif" font-size="12" lengthAdjust="spacing" textLength="267" x="45.5" y="212.7402">Selecciona rol (Ventas / Compras / Contabilidad)</text><rect fill="#F1F1F1" height="35.0938" rx="12.5" ry="12.5" style="stroke:#181818;stroke-width:0.5;" width="275" x="41.5" y="829.8506"/><text fill="#000000" font-family="sans-serif" font-size="12" lengthAdjust="spacing" textLength="255" x="51.5" y="852.3076">Recibe confirmaci&#243;n del nuevo usuario creado</text><ellipse cx="179" cy="895.9443" fill="none" rx="11" ry="11" style="stroke:#222222;stroke-width:1.0;"/><ellipse cx="179" cy="895.9443" fill="#222222" rx="6" ry="6" style="stroke:#222222;stroke-width:1.0;"/><line style="stroke:#000000;stroke-width:1.5;" x1="15" x2="15" y1="12.4551" y2="906.9443"/><rect fill="#F1F1F1" height="35.0938" rx="12.5" ry="12.5" style="stroke:#181818;stroke-width:0.5;" width="158" x="513" y="263.5869"/><text fill="#000000" font-family="sans-serif" font-size="12" lengthAdjust="spacing" textLength="138" x="523" y="286.0439">Validar datos ingresados</text><polygon fill="#F1F1F1" points="553.5,318.6807,630.5,318.6807,642.5,330.6807,630.5,342.6807,553.5,342.6807,541.5,330.6807,553.5,318.6807" style="stroke:#181818;stroke-width:0.5;"/><text fill="#000000" font-family="sans-serif" font-size="11" lengthAdjust="spacing" textLength="77" x="553.5" y="335.1816">&#191;Datos v&#225;lidos?</text><text fill="#000000" font-family="sans-serif" font-size="11" lengthAdjust="spacing" textLength="9" x="532.5" y="328.2637">S&#237;</text><text fill="#000000" font-family="sans-serif" font-size="11" lengthAdjust="spacing" textLength="13" x="642.5" y="328.2637">No</text><rect fill="#F1F1F1" height="35.0938" rx="12.5" ry="12.5" style="stroke:#181818;stroke-width:0.5;" width="148" x="404" y="352.6807"/><text fill="#000000" font-family="sans-serif" font-size="12" lengthAdjust="spacing" textLength="128" x="414" y="375.1377">Crear objeto Empleado</text><rect fill="#F1F1F1" height="35.0938" rx="12.5" ry="12.5" style="stroke:#181818;stroke-width:0.5;" width="161" x="397.5" y="407.7744"/><text fill="#000000" font-family="sans-serif" font-size="12" lengthAdjust="spacing" textLength="141" x="407.5" y="430.2314">Asignar Rol seleccionado</text><rect fill="#F1F1F1" height="35.0938" rx="12.5" ry="12.5" style="stroke:#181818;stroke-width:0.5;" width="262" x="347" y="462.8682"/><text fill="#000000" font-family="sans-serif" font-size="12" lengthAdjust="spacing" textLength="242" x="357" y="485.3252">Crear objeto Usuario asociado al Empleado</text><rect fill="#F1F1F1" height="35.0938" rx="12.5" ry="12.5" style="stroke:#181818;stroke-width:0.5;" width="230" x="363" y="517.9619"/><text fill="#000000" font-family="sans-serif" font-size="12" lengthAdjust="spacing" textLength="210" x="373" y="540.4189">Invocar usuarioRepo.guardar(usuario)</text><rect fill="#F1F1F1" height="35.0938" rx="12.5" ry="12.5" style="stroke:#181818;stroke-width:0.5;" width="154" x="629" y="352.6807"/><text fill="#000000" font-family="sans-serif" font-size="12" lengthAdjust="spacing" textLength="134" x="639" y="375.1377">Notificar error al Gerente</text><ellipse cx="706" cy="418.7744" fill="none" rx="11" ry="11" style="stroke:#222222;stroke-width:1.0;"/><ellipse cx="706" cy="418.7744" fill="#222222" rx="6" ry="6" style="stroke:#222222;stroke-width:1.0;"/><rect fill="#F1F1F1" height="35.0938" rx="12.5" ry="12.5" style="stroke:#181818;stroke-width:0.5;" width="160" x="512" y="756.5469"/><text fill="#000000" font-family="sans-serif" font-size="12" lengthAdjust="spacing" textLength="140" x="522" y="779.0039">Notificar &#233;xito de creaci&#243;n</text><line style="stroke:#000000;stroke-width:1.5;" x1="341" x2="341" y1="12.4551" y2="906.9443"/><rect fill="#F1F1F1" height="35.0938" rx="12.5" ry="12.5" style="stroke:#181818;stroke-width:0.5;" width="175" x="808" y="573.0557"/><text fill="#000000" font-family="sans-serif" font-size="12" lengthAdjust="spacing" textLength="155" x="818" y="595.5127">Conectar a la base de datos</text><rect fill="#F1F1F1" height="35.0938" rx="12.5" ry="12.5" style="stroke:#181818;stroke-width:0.5;" width="205" x="793" y="628.1494"/><text fill="#000000" font-family="sans-serif" font-size="12" lengthAdjust="spacing" textLength="185" x="803" y="650.6064">Insertar nuevo registro de usuario</text><rect fill="#F1F1F1" height="35.0938" rx="12.5" ry="12.5" style="stroke:#181818;stroke-width:0.5;" width="129" x="831" y="683.2432"/><text fill="#000000" font-family="sans-serif" font-size="12" lengthAdjust="spacing" textLength="109" x="841" y="705.7002">Confirmar inserci&#243;n</text><line style="stroke:#000000;stroke-width:1.5;" x1="787" x2="787" y1="12.4551" y2="906.9443"/><line style="stroke:#000000;stroke-width:1.5;" x1="1002" x2="1002" y1="12.4551" y2="906.9443"/><line style="stroke:#181818;stroke-width:1.0;" x1="179" x2="179" y1="60.0957" y2="80.0957"/><polygon fill="#181818" points="175,70.0957,179,80.0957,183,70.0957,179,74.0957" style="stroke:#181818;stroke-width:1.0;"/><line style="stroke:#181818;stroke-width:1.0;" x1="179" x2="179" y1="115.1895" y2="135.1895"/><polygon fill="#181818" points="175,125.1895,179,135.1895,183,125.1895,179,129.1895" style="stroke:#181818;stroke-width:1.0;"/><line style="stroke:#181818;stroke-width:1.0;" x1="179" x2="179" y1="170.2832" y2="190.2832"/><polygon fill="#181818" points="175,180.2832,179,190.2832,183,180.2832,179,184.2832" style="stroke:#181818;stroke-width:1.0;"/><line style="stroke:#181818;stroke-width:1.0;" x1="179" x2="179" y1="864.9443" y2="884.9443"/><polygon fill="#181818" points="175,874.9443,179,884.9443,183,874.9443,179,878.9443" style="stroke:#181818;stroke-width:1.0;"/><line style="stroke:#181818;stroke-width:1.0;" x1="478" x2="478" y1="387.7744" y2="407.7744"/><polygon fill="#181818" points="474,397.7744,478,407.7744,482,397.7744,478,401.7744" style="stroke:#181818;stroke-width:1.0;"/><line style="stroke:#181818;stroke-width:1.0;" x1="478" x2="478" y1="442.8682" y2="462.8682"/><polygon fill="#181818" points="474,452.8682,478,462.8682,482,452.8682,478,456.8682" style="stroke:#181818;stroke-width:1.0;"/><line style="stroke:#181818;stroke-width:1.0;" x1="478" x2="478" y1="497.9619" y2="517.9619"/><polygon fill="#181818" points="474,507.9619,478,517.9619,482,507.9619,478,511.9619" style="stroke:#181818;stroke-width:1.0;"/><line style="stroke:#181818;stroke-width:1.0;" x1="706" x2="706" y1="387.7744" y2="407.7744"/><polygon fill="#181818" points="702,397.7744,706,407.7744,710,397.7744,706,401.7744" style="stroke:#181818;stroke-width:1.0;"/><line style="stroke:#181818;stroke-width:1.0;" x1="541.5" x2="478" y1="330.6807" y2="330.6807"/><line style="stroke:#181818;stroke-width:1.0;" x1="478" x2="478" y1="330.6807" y2="352.6807"/><polygon fill="#181818" points="474,342.6807,478,352.6807,482,342.6807,478,346.6807" style="stroke:#181818;stroke-width:1.0;"/><line style="stroke:#181818;stroke-width:1.0;" x1="642.5" x2="706" y1="330.6807" y2="330.6807"/><line style="stroke:#181818;stroke-width:1.0;" x1="706" x2="706" y1="330.6807" y2="352.6807"/><polygon fill="#181818" points="702,342.6807,706,352.6807,710,342.6807,706,346.6807" style="stroke:#181818;stroke-width:1.0;"/><line style="stroke:#181818;stroke-width:1.0;" x1="478" x2="478" y1="553.0557" y2="558.0557"/><line style="stroke:#181818;stroke-width:1.0;" x1="478" x2="895.5" y1="558.0557" y2="558.0557"/><line style="stroke:#181818;stroke-width:1.0;" x1="895.5" x2="895.5" y1="558.0557" y2="573.0557"/><polygon fill="#181818" points="891.5,563.0557,895.5,573.0557,899.5,563.0557,895.5,567.0557" style="stroke:#181818;stroke-width:1.0;"/><line style="stroke:#181818;stroke-width:1.0;" x1="592" x2="592" y1="298.6807" y2="318.6807"/><polygon fill="#181818" points="588,308.6807,592,318.6807,596,308.6807,592,312.6807" style="stroke:#181818;stroke-width:1.0;"/><line style="stroke:#181818;stroke-width:1.0;" x1="895.5" x2="895.5" y1="608.1494" y2="628.1494"/><polygon fill="#181818" points="891.5,618.1494,895.5,628.1494,899.5,618.1494,895.5,622.1494" style="stroke:#181818;stroke-width:1.0;"/><line style="stroke:#181818;stroke-width:1.0;" x1="895.5" x2="895.5" y1="663.2432" y2="683.2432"/><polygon fill="#181818" points="891.5,673.2432,895.5,683.2432,899.5,673.2432,895.5,677.2432" style="stroke:#181818;stroke-width:1.0;"/><line style="stroke:#181818;stroke-width:1.0;" x1="179" x2="179" y1="225.377" y2="248.5869"/><line style="stroke:#181818;stroke-width:1.0;" x1="179" x2="592" y1="248.5869" y2="248.5869"/><line style="stroke:#181818;stroke-width:1.0;" x1="592" x2="592" y1="248.5869" y2="263.5869"/><polygon fill="#181818" points="588,253.5869,592,263.5869,596,253.5869,592,257.5869" style="stroke:#181818;stroke-width:1.0;"/><text fill="#000000" font-family="sans-serif" font-size="11" lengthAdjust="spacing" textLength="76" x="183" y="242.0869">ServicioUsuario</text><line style="stroke:#181818;stroke-width:1.0;" x1="895.5" x2="895.5" y1="718.3369" y2="741.5469"/><line style="stroke:#181818;stroke-width:1.0;" x1="895.5" x2="592" y1="741.5469" y2="741.5469"/><line style="stroke:#181818;stroke-width:1.0;" x1="592" x2="592" y1="741.5469" y2="756.5469"/><polygon fill="#181818" points="588,746.5469,592,756.5469,596,746.5469,592,750.5469" style="stroke:#181818;stroke-width:1.0;"/><text fill="#000000" font-family="sans-serif" font-size="11" lengthAdjust="spacing" textLength="76" x="899.5" y="735.0469">ServicioUsuario</text><line style="stroke:#181818;stroke-width:1.0;" x1="592" x2="592" y1="791.6406" y2="814.8506"/><line style="stroke:#181818;stroke-width:1.0;" x1="592" x2="179" y1="814.8506" y2="814.8506"/><line style="stroke:#181818;stroke-width:1.0;" x1="179" x2="179" y1="814.8506" y2="829.8506"/><polygon fill="#181818" points="175,819.8506,179,829.8506,183,819.8506,179,823.8506" style="stroke:#181818;stroke-width:1.0;"/><text fill="#000000" font-family="sans-serif" font-size="11" lengthAdjust="spacing" textLength="87" x="596" y="808.3506">Usuario (Gerente)</text><text fill="#000000" font-family="sans-serif" font-size="18" lengthAdjust="spacing" textLength="144" x="106" y="31.1406">Usuario (Gerente)</text><text fill="#000000" font-family="sans-serif" font-size="18" lengthAdjust="spacing" textLength="126" x="501" y="31.1406">ServicioUsuario</text><text fill="#000000" font-family="sans-serif" font-size="18" lengthAdjust="spacing" textLength="148" x="820.5" y="31.1406">UsuarioRepository</text><!--SRC=[ZLAnRjj03DtlApXAGDhk4j2YI8iYImORpawTQ9N5-IZmpaO2-6SwTkZK3oXG_rXviXpLoTBjmEDxV7oFnqtQex90zOMKOgRww596pQvPIs3F6S4heKBSqq5WVsvlNNCN1wM4q6EM13q5eDqO27lZYhBhb6u0Hmg1Uxa1Zpf8RR0r1VAU9IAe1AWUR2WcU0UtiXjrVbcfOmDYRv0txs5DUZ0jihbCTySNfQDh7h0WT1R4PtczfDRn5ge_lpzDzSFfUr6KFjIGlrA4QdtwMJk0vdRQKhflb0K-pwkqvUTZuY7QtyhqfcVvy-SLx68c9l5SdC1mJNKN3s9MN6nSqIXl1tkQxcgkrQNHTjuiBOcpw5FhA2I2wbuclVUIUSk5Z5H5owWvmaAGieoEOizRy-eLbRbb9fEte04X87Hep3sTlPl2JQJvENMbWLDMAItB1HZ5bdLdNLpQFPz-nV-FQz5_-l5egWftkRI5vjLfjiik_zvhioBFdQ5dFHF3T95NDpknbnmcR_u2]--></g></svg>