<?xml version="1.0" encoding="us-ascii" standalone="no"?><svg xmlns="http://www.w3.org/2000/svg" xmlns:xlink="http://www.w3.org/1999/xlink" contentStyleType="text/css" height="753px" preserveAspectRatio="none" style="width:1005px;height:753px;background:#FFFFFF;" version="1.1" viewBox="0 0 1005 753" width="1005px" zoomAndPan="magnify"><defs/><g><rect fill="none" height="22.6406" style="stroke:none;stroke-width:1.0;" width="972.5" x="15" y="12.4551"/><ellipse cx="166.5" cy="50.0957" fill="#222222" rx="10" ry="10" style="stroke:#222222;stroke-width:1.0;"/><rect fill="#F1F1F1" height="35.0938" rx="12.5" ry="12.5" style="stroke:#181818;stroke-width:0.5;" width="154" x="89.5" y="80.0957"/><text fill="#000000" font-family="sans-serif" font-size="12" lengthAdjust="spacing" textLength="134" x="99.5" y="102.5527">Solicita registrar compra</text><rect fill="#F1F1F1" height="35.0938" rx="12.5" ry="12.5" style="stroke:#181818;stroke-width:0.5;" width="291" x="21" y="135.1895"/><text fill="#000000" font-family="sans-serif" font-size="12" lengthAdjust="spacing" textLength="271" x="31" y="157.6465">Ingresa Proveedor, Productos, Cantidades y Total</text><rect fill="#F1F1F1" height="35.0938" rx="12.5" ry="12.5" style="stroke:#181818;stroke-width:0.5;" width="254" x="39.5" y="664.5693"/><text fill="#000000" font-family="sans-serif" font-size="12" lengthAdjust="spacing" textLength="234" x="49.5" y="687.0264">Recibe confirmaci&#243;n de compra registrada</text><ellipse cx="166.5" cy="730.6631" fill="none" rx="11" ry="11" style="stroke:#222222;stroke-width:1.0;"/><ellipse cx="166.5" cy="730.6631" fill="#222222" rx="6" ry="6" style="stroke:#222222;stroke-width:1.0;"/><line style="stroke:#000000;stroke-width:1.5;" x1="15" x2="15" y1="12.4551" y2="741.6631"/><rect fill="#F1F1F1" height="35.0938" rx="12.5" ry="12.5" style="stroke:#181818;stroke-width:0.5;" width="167" x="501.5" y="208.4932"/><text fill="#000000" font-family="sans-serif" font-size="12" lengthAdjust="spacing" textLength="147" x="511.5" y="230.9502">Validar datos de la compra</text><polygon fill="#F1F1F1" points="546.5,263.5869,623.5,263.5869,635.5,275.5869,623.5,287.5869,546.5,287.5869,534.5,275.5869,546.5,263.5869" style="stroke:#181818;stroke-width:0.5;"/><text fill="#000000" font-family="sans-serif" font-size="11" lengthAdjust="spacing" textLength="77" x="546.5" y="280.0879">&#191;Datos v&#225;lidos?</text><text fill="#000000" font-family="sans-serif" font-size="11" lengthAdjust="spacing" textLength="9" x="525.5" y="273.1699">S&#237;</text><text fill="#000000" font-family="sans-serif" font-size="11" lengthAdjust="spacing" textLength="13" x="635.5" y="273.1699">No</text><rect fill="#F1F1F1" height="35.0938" rx="12.5" ry="12.5" style="stroke:#181818;stroke-width:0.5;" width="282" x="322" y="297.5869"/><text fill="#000000" font-family="sans-serif" font-size="12" lengthAdjust="spacing" textLength="262" x="332" y="320.0439">Crear objeto Compra con estado = PENDIENTE</text><rect fill="#F1F1F1" height="35.0938" rx="12.5" ry="12.5" style="stroke:#181818;stroke-width:0.5;" width="230" x="348" y="352.6807"/><text fill="#000000" font-family="sans-serif" font-size="12" lengthAdjust="spacing" textLength="210" x="358" y="375.1377">Invocar compraRepo.guardar(compra)</text><rect fill="#F1F1F1" height="35.0938" rx="12.5" ry="12.5" style="stroke:#181818;stroke-width:0.5;" width="166" x="624" y="297.5869"/><text fill="#000000" font-family="sans-serif" font-size="12" lengthAdjust="spacing" textLength="146" x="634" y="320.0439">Notificar error al empleado</text><ellipse cx="707" cy="363.6807" fill="none" rx="11" ry="11" style="stroke:#222222;stroke-width:1.0;"/><ellipse cx="707" cy="363.6807" fill="#222222" rx="6" ry="6" style="stroke:#222222;stroke-width:1.0;"/><rect fill="#F1F1F1" height="35.0938" rx="12.5" ry="12.5" style="stroke:#181818;stroke-width:0.5;" width="93" x="538.5" y="591.2656"/><text fill="#000000" font-family="sans-serif" font-size="12" lengthAdjust="spacing" textLength="73" x="548.5" y="613.7227">Notificar &#233;xito</text><line style="stroke:#000000;stroke-width:1.5;" x1="316" x2="316" y1="12.4551" y2="741.6631"/><rect fill="#F1F1F1" height="35.0938" rx="12.5" ry="12.5" style="stroke:#181818;stroke-width:0.5;" width="175" x="803.5" y="407.7744"/><text fill="#000000" font-family="sans-serif" font-size="12" lengthAdjust="spacing" textLength="155" x="813.5" y="430.2314">Conectar a la base de datos</text><rect fill="#F1F1F1" height="35.0938" rx="12.5" ry="12.5" style="stroke:#181818;stroke-width:0.5;" width="182" x="800" y="462.8682"/><text fill="#000000" font-family="sans-serif" font-size="12" lengthAdjust="spacing" textLength="162" x="810" y="485.3252">Insertar registro de la compra</text><rect fill="#F1F1F1" height="35.0938" rx="12.5" ry="12.5" style="stroke:#181818;stroke-width:0.5;" width="129" x="826.5" y="517.9619"/><text fill="#000000" font-family="sans-serif" font-size="12" lengthAdjust="spacing" textLength="109" x="836.5" y="540.4189">Confirmar inserci&#243;n</text><line style="stroke:#000000;stroke-width:1.5;" x1="794" x2="794" y1="12.4551" y2="741.6631"/><line style="stroke:#000000;stroke-width:1.5;" x1="986" x2="986" y1="12.4551" y2="741.6631"/><line style="stroke:#181818;stroke-width:1.0;" x1="166.5" x2="166.5" y1="60.0957" y2="80.0957"/><polygon fill="#181818" points="162.5,70.0957,166.5,80.0957,170.5,70.0957,166.5,74.0957" style="stroke:#181818;stroke-width:1.0;"/><line style="stroke:#181818;stroke-width:1.0;" x1="166.5" x2="166.5" y1="115.1895" y2="135.1895"/><polygon fill="#181818" points="162.5,125.1895,166.5,135.1895,170.5,125.1895,166.5,129.1895" style="stroke:#181818;stroke-width:1.0;"/><line style="stroke:#181818;stroke-width:1.0;" x1="166.5" x2="166.5" y1="699.6631" y2="719.6631"/><polygon fill="#181818" points="162.5,709.6631,166.5,719.6631,170.5,709.6631,166.5,713.6631" style="stroke:#181818;stroke-width:1.0;"/><line style="stroke:#181818;stroke-width:1.0;" x1="463" x2="463" y1="332.6807" y2="352.6807"/><polygon fill="#181818" points="459,342.6807,463,352.6807,467,342.6807,463,346.6807" style="stroke:#181818;stroke-width:1.0;"/><line style="stroke:#181818;stroke-width:1.0;" x1="707" x2="707" y1="332.6807" y2="352.6807"/><polygon fill="#181818" points="703,342.6807,707,352.6807,711,342.6807,707,346.6807" style="stroke:#181818;stroke-width:1.0;"/><line style="stroke:#181818;stroke-width:1.0;" x1="534.5" x2="463" y1="275.5869" y2="275.5869"/><line style="stroke:#181818;stroke-width:1.0;" x1="463" x2="463" y1="275.5869" y2="297.5869"/><polygon fill="#181818" points="459,287.5869,463,297.5869,467,287.5869,463,291.5869" style="stroke:#181818;stroke-width:1.0;"/><line style="stroke:#181818;stroke-width:1.0;" x1="635.5" x2="707" y1="275.5869" y2="275.5869"/><line style="stroke:#181818;stroke-width:1.0;" x1="707" x2="707" y1="275.5869" y2="297.5869"/><polygon fill="#181818" points="703,287.5869,707,297.5869,711,287.5869,707,291.5869" style="stroke:#181818;stroke-width:1.0;"/><line style="stroke:#181818;stroke-width:1.0;" x1="463" x2="463" y1="387.7744" y2="392.7744"/><line style="stroke:#181818;stroke-width:1.0;" x1="463" x2="891" y1="392.7744" y2="392.7744"/><line style="stroke:#181818;stroke-width:1.0;" x1="891" x2="891" y1="392.7744" y2="407.7744"/><polygon fill="#181818" points="887,397.7744,891,407.7744,895,397.7744,891,401.7744" style="stroke:#181818;stroke-width:1.0;"/><line style="stroke:#181818;stroke-width:1.0;" x1="585" x2="585" y1="243.5869" y2="263.5869"/><polygon fill="#181818" points="581,253.5869,585,263.5869,589,253.5869,585,257.5869" style="stroke:#181818;stroke-width:1.0;"/><line style="stroke:#181818;stroke-width:1.0;" x1="891" x2="891" y1="442.8682" y2="462.8682"/><polygon fill="#181818" points="887,452.8682,891,462.8682,895,452.8682,891,456.8682" style="stroke:#181818;stroke-width:1.0;"/><line style="stroke:#181818;stroke-width:1.0;" x1="891" x2="891" y1="497.9619" y2="517.9619"/><polygon fill="#181818" points="887,507.9619,891,517.9619,895,507.9619,891,511.9619" style="stroke:#181818;stroke-width:1.0;"/><line style="stroke:#181818;stroke-width:1.0;" x1="166.5" x2="166.5" y1="170.2832" y2="193.4932"/><line style="stroke:#181818;stroke-width:1.0;" x1="166.5" x2="585" y1="193.4932" y2="193.4932"/><line style="stroke:#181818;stroke-width:1.0;" x1="585" x2="585" y1="193.4932" y2="208.4932"/><polygon fill="#181818" points="581,198.4932,585,208.4932,589,198.4932,585,202.4932" style="stroke:#181818;stroke-width:1.0;"/><text fill="#000000" font-family="sans-serif" font-size="11" lengthAdjust="spacing" textLength="76" x="170.5" y="186.9932">ServicioCompra</text><line style="stroke:#181818;stroke-width:1.0;" x1="891" x2="891" y1="553.0557" y2="576.2656"/><line style="stroke:#181818;stroke-width:1.0;" x1="891" x2="585" y1="576.2656" y2="576.2656"/><line style="stroke:#181818;stroke-width:1.0;" x1="585" x2="585" y1="576.2656" y2="591.2656"/><polygon fill="#181818" points="581,581.2656,585,591.2656,589,581.2656,585,585.2656" style="stroke:#181818;stroke-width:1.0;"/><text fill="#000000" font-family="sans-serif" font-size="11" lengthAdjust="spacing" textLength="76" x="895" y="569.7656">ServicioCompra</text><line style="stroke:#181818;stroke-width:1.0;" x1="585" x2="585" y1="626.3594" y2="649.5693"/><line style="stroke:#181818;stroke-width:1.0;" x1="585" x2="166.5" y1="649.5693" y2="649.5693"/><line style="stroke:#181818;stroke-width:1.0;" x1="166.5" x2="166.5" y1="649.5693" y2="664.5693"/><polygon fill="#181818" points="162.5,654.5693,166.5,664.5693,170.5,654.5693,166.5,658.5693" style="stroke:#181818;stroke-width:1.0;"/><text fill="#000000" font-family="sans-serif" font-size="11" lengthAdjust="spacing" textLength="140" x="589" y="643.0693">Usuario (Empleado Compras)</text><text fill="#000000" font-family="sans-serif" font-size="18" lengthAdjust="spacing" textLength="261" x="35" y="31.1406">Usuario (Empleado de Compras)</text><text fill="#000000" font-family="sans-serif" font-size="18" lengthAdjust="spacing" textLength="127" x="491.5" y="31.1406">ServicioCompra</text><text fill="#000000" font-family="sans-serif" font-size="18" lengthAdjust="spacing" textLength="149" x="815.5" y="31.1406">CompraRepository</text><!--SRC=[ZPAnJiCm48PtFyMDYLHuW4J043fqYQgsiBlnfHYblkZiLbJAop0oCF40IFJ5EBkbY3B05jd__Vx_BpVS-OrcIv2Drts7sX0OX8hMFMkV3ye7pK4LS-fiOuC6nfNrWJL3apIbAYPknUWrJ9csY8Pu53_DfWdaHr1f5wpH1ZtiO451TwMwk8OvybOSgJgwgE7doQ2AUzt988FHOXHJTVhqg6qX-tY_JJVR_RC8oT_a41xGGJRVl-OAeAWOPPoMZnZeM4aC7A2KafvNC1tNjvDnlHYNKJvnMsfEnMROq-LAs4Y4x72KHvbahqu2RmFnhbJOUOIiflHiJS6sDZeXCp7e3l38DXhuGBr2PsmhfS-jf7P53XkX3ZeMNcfnbku9GeBjaUFjyKVG6PWutbfUYy96QMFtR-w_nB-Jxr-U94-Q-xqWNziHFVvOdsA6ZLrYn9vIfJXHSiXxMYSZWHAOJm00]--></g></svg>