<?xml version="1.0" encoding="us-ascii" standalone="no"?><svg xmlns="http://www.w3.org/2000/svg" xmlns:xlink="http://www.w3.org/1999/xlink" contentStyleType="text/css" height="973px" preserveAspectRatio="none" style="width:891px;height:973px;background:#FFFFFF;" version="1.1" viewBox="0 0 891 973" width="891px" zoomAndPan="magnify"><defs/><g><rect fill="none" height="22.6406" style="stroke:none;stroke-width:1.0;" width="858.5" x="15" y="12.4551"/><ellipse cx="168" cy="50.0957" fill="#222222" rx="10" ry="10" style="stroke:#222222;stroke-width:1.0;"/><rect fill="#F1F1F1" height="35.0938" rx="12.5" ry="12.5" style="stroke:#181818;stroke-width:0.5;" width="208" x="64" y="80.0957"/><text fill="#000000" font-family="sans-serif" font-size="12" lengthAdjust="spacing" textLength="188" x="74" y="102.5527">Selecciona una compra pendiente</text><polygon fill="#F1F1F1" points="114.5,483.498,221.5,483.498,233.5,495.498,221.5,507.498,114.5,507.498,102.5,495.498,114.5,483.498" style="stroke:#181818;stroke-width:0.5;"/><text fill="#000000" font-family="sans-serif" font-size="11" lengthAdjust="spacing" textLength="107" x="114.5" y="499.999">&#191;Aprobar o Cancelar?</text><text fill="#000000" font-family="sans-serif" font-size="11" lengthAdjust="spacing" textLength="40" x="62.5" y="493.0811">Aprobar</text><text fill="#000000" font-family="sans-serif" font-size="11" lengthAdjust="spacing" textLength="43" x="233.5" y="493.0811">Cancelar</text><rect fill="#F1F1F1" height="35.0938" rx="12.5" ry="12.5" style="stroke:#181818;stroke-width:0.5;" width="136" x="21" y="517.498"/><text fill="#000000" font-family="sans-serif" font-size="12" lengthAdjust="spacing" textLength="116" x="31" y="539.9551">Confirma aprobaci&#243;n</text><rect fill="#F1F1F1" height="35.0938" rx="12.5" ry="12.5" style="stroke:#181818;stroke-width:0.5;" width="140" x="177" y="517.498"/><text fill="#000000" font-family="sans-serif" font-size="12" lengthAdjust="spacing" textLength="120" x="187" y="539.9551">Confirma cancelaci&#243;n</text><polygon fill="#F1F1F1" points="168,565.3447,180,577.3447,168,589.3447,156,577.3447,168,565.3447" style="stroke:#181818;stroke-width:0.5;"/><text fill="#000000" font-family="sans-serif" font-size="11" lengthAdjust="spacing" textLength="76" x="80" y="574.9277">ServicioCompra</text><text fill="#000000" font-family="sans-serif" font-size="11" lengthAdjust="spacing" textLength="76" x="180" y="574.9277">ServicioCompra</text><rect fill="#F1F1F1" height="35.0938" rx="12.5" ry="12.5" style="stroke:#181818;stroke-width:0.5;" width="284" x="26" y="884.3496"/><text fill="#000000" font-family="sans-serif" font-size="12" lengthAdjust="spacing" textLength="264" x="36" y="906.8066">Recibe confirmaci&#243;n de aprobaci&#243;n/cancelaci&#243;n</text><ellipse cx="168" cy="950.4434" fill="none" rx="11" ry="11" style="stroke:#222222;stroke-width:1.0;"/><ellipse cx="168" cy="950.4434" fill="#222222" rx="6" ry="6" style="stroke:#222222;stroke-width:1.0;"/><line style="stroke:#000000;stroke-width:1.5;" x1="15" x2="15" y1="12.4551" y2="961.4434"/><rect fill="#F1F1F1" height="35.0938" rx="12.5" ry="12.5" style="stroke:#181818;stroke-width:0.5;" width="145" x="426.5" y="153.3994"/><text fill="#000000" font-family="sans-serif" font-size="12" lengthAdjust="spacing" textLength="125" x="436.5" y="175.8564">Obtener compra por ID</text><rect fill="#F1F1F1" height="35.0938" rx="12.5" ry="12.5" style="stroke:#181818;stroke-width:0.5;" width="162" x="418" y="410.1943"/><text fill="#000000" font-family="sans-serif" font-size="12" lengthAdjust="spacing" textLength="142" x="428" y="432.6514">Mostrar datos al Contador</text><rect fill="#F1F1F1" height="35.0938" rx="12.5" ry="12.5" style="stroke:#181818;stroke-width:0.5;" width="344" x="327" y="609.3447"/><text fill="#000000" font-family="sans-serif" font-size="12" lengthAdjust="spacing" textLength="324" x="337" y="631.8018">Actualizar estado de la compra (APROBADA / CANCELADA)</text><rect fill="#F1F1F1" height="35.0938" rx="12.5" ry="12.5" style="stroke:#181818;stroke-width:0.5;" width="120" x="439" y="811.0459"/><text fill="#000000" font-family="sans-serif" font-size="12" lengthAdjust="spacing" textLength="100" x="449" y="833.5029">Notificar resultado</text><line style="stroke:#000000;stroke-width:1.5;" x1="321" x2="321" y1="12.4551" y2="961.4434"/><rect fill="#F1F1F1" height="35.0938" rx="12.5" ry="12.5" style="stroke:#181818;stroke-width:0.5;" width="175" x="687" y="226.7031"/><text fill="#000000" font-family="sans-serif" font-size="12" lengthAdjust="spacing" textLength="155" x="697" y="249.1602">Conectar a la base de datos</text><rect fill="#F1F1F1" height="35.0938" rx="12.5" ry="12.5" style="stroke:#181818;stroke-width:0.5;" width="187" x="681" y="281.7969"/><text fill="#000000" font-family="sans-serif" font-size="12" lengthAdjust="spacing" textLength="167" x="691" y="304.2539">Recuperar datos de la compra</text><rect fill="#F1F1F1" height="35.0938" rx="12.5" ry="12.5" style="stroke:#181818;stroke-width:0.5;" width="115" x="717" y="336.8906"/><text fill="#000000" font-family="sans-serif" font-size="12" lengthAdjust="spacing" textLength="95" x="727" y="359.3477">Devolver Compra</text><rect fill="#F1F1F1" height="35.0938" rx="12.5" ry="12.5" style="stroke:#181818;stroke-width:0.5;" width="167" x="691" y="682.6484"/><text fill="#000000" font-family="sans-serif" font-size="12" lengthAdjust="spacing" textLength="147" x="701" y="705.1055">Actualizar compra en la BD</text><rect fill="#F1F1F1" height="35.0938" rx="12.5" ry="12.5" style="stroke:#181818;stroke-width:0.5;" width="149" x="700" y="737.7422"/><text fill="#000000" font-family="sans-serif" font-size="12" lengthAdjust="spacing" textLength="129" x="710" y="760.1992">Confirmar actualizaci&#243;n</text><line style="stroke:#000000;stroke-width:1.5;" x1="675" x2="675" y1="12.4551" y2="961.4434"/><line style="stroke:#000000;stroke-width:1.5;" x1="872" x2="872" y1="12.4551" y2="961.4434"/><line style="stroke:#181818;stroke-width:1.0;" x1="168" x2="168" y1="60.0957" y2="80.0957"/><polygon fill="#181818" points="164,70.0957,168,80.0957,172,70.0957,168,74.0957" style="stroke:#181818;stroke-width:1.0;"/><line style="stroke:#181818;stroke-width:1.0;" x1="102.5" x2="89" y1="495.498" y2="495.498"/><line style="stroke:#181818;stroke-width:1.0;" x1="89" x2="89" y1="495.498" y2="517.498"/><polygon fill="#181818" points="85,507.498,89,517.498,93,507.498,89,511.498" style="stroke:#181818;stroke-width:1.0;"/><line style="stroke:#181818;stroke-width:1.0;" x1="233.5" x2="247" y1="495.498" y2="495.498"/><line style="stroke:#181818;stroke-width:1.0;" x1="247" x2="247" y1="495.498" y2="517.498"/><polygon fill="#181818" points="243,507.498,247,517.498,251,507.498,247,511.498" style="stroke:#181818;stroke-width:1.0;"/><line style="stroke:#181818;stroke-width:1.0;" x1="89" x2="89" y1="552.5918" y2="577.3447"/><line style="stroke:#181818;stroke-width:1.0;" x1="89" x2="156" y1="577.3447" y2="577.3447"/><polygon fill="#181818" points="146,573.3447,156,577.3447,146,581.3447,150,577.3447" style="stroke:#181818;stroke-width:1.0;"/><line style="stroke:#181818;stroke-width:1.0;" x1="247" x2="247" y1="552.5918" y2="577.3447"/><line style="stroke:#181818;stroke-width:1.0;" x1="247" x2="180" y1="577.3447" y2="577.3447"/><polygon fill="#181818" points="190,573.3447,180,577.3447,190,581.3447,186,577.3447" style="stroke:#181818;stroke-width:1.0;"/><line style="stroke:#181818;stroke-width:1.0;" x1="168" x2="168" y1="919.4434" y2="939.4434"/><polygon fill="#181818" points="164,929.4434,168,939.4434,172,929.4434,168,933.4434" style="stroke:#181818;stroke-width:1.0;"/><line style="stroke:#181818;stroke-width:1.0;" x1="774.5" x2="774.5" y1="261.7969" y2="281.7969"/><polygon fill="#181818" points="770.5,271.7969,774.5,281.7969,778.5,271.7969,774.5,275.7969" style="stroke:#181818;stroke-width:1.0;"/><line style="stroke:#181818;stroke-width:1.0;" x1="774.5" x2="774.5" y1="316.8906" y2="336.8906"/><polygon fill="#181818" points="770.5,326.8906,774.5,336.8906,778.5,326.8906,774.5,330.8906" style="stroke:#181818;stroke-width:1.0;"/><line style="stroke:#181818;stroke-width:1.0;" x1="774.5" x2="774.5" y1="717.7422" y2="737.7422"/><polygon fill="#181818" points="770.5,727.7422,774.5,737.7422,778.5,727.7422,774.5,731.7422" style="stroke:#181818;stroke-width:1.0;"/><line style="stroke:#181818;stroke-width:1.0;" x1="168" x2="168" y1="115.1895" y2="138.3994"/><line style="stroke:#181818;stroke-width:1.0;" x1="168" x2="499" y1="138.3994" y2="138.3994"/><line style="stroke:#181818;stroke-width:1.0;" x1="499" x2="499" y1="138.3994" y2="153.3994"/><polygon fill="#181818" points="495,143.3994,499,153.3994,503,143.3994,499,147.3994" style="stroke:#181818;stroke-width:1.0;"/><text fill="#000000" font-family="sans-serif" font-size="11" lengthAdjust="spacing" textLength="76" x="172" y="131.8994">ServicioCompra</text><line style="stroke:#181818;stroke-width:1.0;" x1="499" x2="499" y1="188.4932" y2="211.7031"/><line style="stroke:#181818;stroke-width:1.0;" x1="499" x2="774.5" y1="211.7031" y2="211.7031"/><line style="stroke:#181818;stroke-width:1.0;" x1="774.5" x2="774.5" y1="211.7031" y2="226.7031"/><polygon fill="#181818" points="770.5,216.7031,774.5,226.7031,778.5,216.7031,774.5,220.7031" style="stroke:#181818;stroke-width:1.0;"/><text fill="#000000" font-family="sans-serif" font-size="11" lengthAdjust="spacing" textLength="89" x="503" y="205.2031">CompraRepository</text><line style="stroke:#181818;stroke-width:1.0;" x1="774.5" x2="774.5" y1="371.9844" y2="395.1943"/><line style="stroke:#181818;stroke-width:1.0;" x1="774.5" x2="499" y1="395.1943" y2="395.1943"/><line style="stroke:#181818;stroke-width:1.0;" x1="499" x2="499" y1="395.1943" y2="410.1943"/><polygon fill="#181818" points="495,400.1943,499,410.1943,503,400.1943,499,404.1943" style="stroke:#181818;stroke-width:1.0;"/><text fill="#000000" font-family="sans-serif" font-size="11" lengthAdjust="spacing" textLength="76" x="778.5" y="388.6943">ServicioCompra</text><line style="stroke:#181818;stroke-width:1.0;" x1="499" x2="499" y1="445.2881" y2="468.498"/><line style="stroke:#181818;stroke-width:1.0;" x1="499" x2="168" y1="468.498" y2="468.498"/><line style="stroke:#181818;stroke-width:1.0;" x1="168" x2="168" y1="468.498" y2="483.498"/><polygon fill="#181818" points="164,473.498,168,483.498,172,473.498,168,477.498" style="stroke:#181818;stroke-width:1.0;"/><text fill="#000000" font-family="sans-serif" font-size="11" lengthAdjust="spacing" textLength="92" x="503" y="461.998">Usuario (Contador)</text><line style="stroke:#181818;stroke-width:1.0;" x1="168" x2="168" y1="589.3447" y2="594.3447"/><line style="stroke:#181818;stroke-width:1.0;" x1="168" x2="499" y1="594.3447" y2="594.3447"/><line style="stroke:#181818;stroke-width:1.0;" x1="499" x2="499" y1="594.3447" y2="609.3447"/><polygon fill="#181818" points="495,599.3447,499,609.3447,503,599.3447,499,603.3447" style="stroke:#181818;stroke-width:1.0;"/><line style="stroke:#181818;stroke-width:1.0;" x1="499" x2="499" y1="644.4385" y2="667.6484"/><line style="stroke:#181818;stroke-width:1.0;" x1="499" x2="774.5" y1="667.6484" y2="667.6484"/><line style="stroke:#181818;stroke-width:1.0;" x1="774.5" x2="774.5" y1="667.6484" y2="682.6484"/><polygon fill="#181818" points="770.5,672.6484,774.5,682.6484,778.5,672.6484,774.5,676.6484" style="stroke:#181818;stroke-width:1.0;"/><text fill="#000000" font-family="sans-serif" font-size="11" lengthAdjust="spacing" textLength="89" x="503" y="661.1484">CompraRepository</text><line style="stroke:#181818;stroke-width:1.0;" x1="774.5" x2="774.5" y1="772.8359" y2="796.0459"/><line style="stroke:#181818;stroke-width:1.0;" x1="774.5" x2="499" y1="796.0459" y2="796.0459"/><line style="stroke:#181818;stroke-width:1.0;" x1="499" x2="499" y1="796.0459" y2="811.0459"/><polygon fill="#181818" points="495,801.0459,499,811.0459,503,801.0459,499,805.0459" style="stroke:#181818;stroke-width:1.0;"/><text fill="#000000" font-family="sans-serif" font-size="11" lengthAdjust="spacing" textLength="76" x="778.5" y="789.5459">ServicioCompra</text><line style="stroke:#181818;stroke-width:1.0;" x1="499" x2="499" y1="846.1396" y2="869.3496"/><line style="stroke:#181818;stroke-width:1.0;" x1="499" x2="168" y1="869.3496" y2="869.3496"/><line style="stroke:#181818;stroke-width:1.0;" x1="168" x2="168" y1="869.3496" y2="884.3496"/><polygon fill="#181818" points="164,874.3496,168,884.3496,172,874.3496,168,878.3496" style="stroke:#181818;stroke-width:1.0;"/><text fill="#000000" font-family="sans-serif" font-size="11" lengthAdjust="spacing" textLength="92" x="503" y="862.8496">Usuario (Contador)</text><text fill="#000000" font-family="sans-serif" font-size="18" lengthAdjust="spacing" textLength="153" x="91.5" y="31.1406">Usuario (Contador)</text><text fill="#000000" font-family="sans-serif" font-size="18" lengthAdjust="spacing" textLength="127" x="434.5" y="31.1406">ServicioCompra</text><text fill="#000000" font-family="sans-serif" font-size="18" lengthAdjust="spacing" textLength="149" x="699" y="31.1406">CompraRepository</text><!--SRC=[bLB1IiD04BtlLymnEKZl3IXfwa7GLbhyWCbsWWlRJDZT59JybHyWw8yvcpQrqI8MiX3cxRnvyzvsJxv5PnYIWkk06tPfftn05zHqJPQqDbmZj78qRnk7q52zCLG7ojJLDQp9xOpSANemKweRLperNPQ1QdB7VdPmD- -RzrTMrB0tWTrBRFzP4m9HHbea0O95AD4JREJ3m3vJqnNfjY4dS5-9a1t42Zod7TkTZ1yK_a_q0_lmpOaM1djwWj-cHP9pLfeAae_tl75S2Xj3WRKcY-ucXV1CDIG7A5K0ST7Ak2q2zaLjFj_gJ80paicA2yd0DkxM- -gVxP9XTMxlN8SMhNaLiUJZ4YC_HUxZQZdBvpbCeCWNnUsz_AUNX7aouC0fBiY0cJo9umeIzN3jiCN_KbjmC9NHqk_8jpRglp2l-9nCIQ9jhwGV7pquYMGoDjW7RjGN]--></g></svg>