<?xml version="1.0" encoding="us-ascii" standalone="no"?><svg xmlns="http://www.w3.org/2000/svg" xmlns:xlink="http://www.w3.org/1999/xlink" contentStyleType="text/css" height="773px" preserveAspectRatio="none" style="width:1880px;height:773px;background:#FFFFFF;" version="1.1" viewBox="0 0 1880 773" width="1880px" zoomAndPan="magnify"><defs/><g><rect fill="none" height="22.6406" style="stroke:none;stroke-width:1.0;" width="1847.5" x="15" y="12.4551"/><ellipse cx="219.5" cy="50.0957" fill="#222222" rx="10" ry="10" style="stroke:#222222;stroke-width:1.0;"/><rect fill="#F1F1F1" height="35.0938" rx="12.5" ry="12.5" style="stroke:#181818;stroke-width:0.5;" width="209" x="115" y="80.0957"/><text fill="#000000" font-family="sans-serif" font-size="12" lengthAdjust="spacing" textLength="189" x="125" y="102.5527">Solicita generar reporte de gesti&#243;n</text><rect fill="#F1F1F1" height="35.0938" rx="12.5" ry="12.5" style="stroke:#181818;stroke-width:0.5;" width="397" x="21" y="135.1895"/><text fill="#000000" font-family="sans-serif" font-size="12" lengthAdjust="spacing" textLength="377" x="31" y="157.6465">Selecciona tipo de datos (Ventas, Compras, Inventario, Contabilidad)</text><rect fill="#F1F1F1" height="35.0938" rx="12.5" ry="12.5" style="stroke:#181818;stroke-width:0.5;" width="127" x="156" y="628.9717"/><text fill="#000000" font-family="sans-serif" font-size="12" lengthAdjust="spacing" textLength="107" x="166" y="651.4287">Recibe reporte final</text><rect fill="#F1F1F1" height="35.0938" rx="12.5" ry="12.5" style="stroke:#181818;stroke-width:0.5;" width="267" x="86" y="684.0654"/><text fill="#000000" font-family="sans-serif" font-size="12" lengthAdjust="spacing" textLength="247" x="96" y="706.5225">Analiza informaci&#243;n para toma de decisiones</text><ellipse cx="219.5" cy="750.1592" fill="none" rx="11" ry="11" style="stroke:#222222;stroke-width:1.0;"/><ellipse cx="219.5" cy="750.1592" fill="#222222" rx="6" ry="6" style="stroke:#222222;stroke-width:1.0;"/><line style="stroke:#000000;stroke-width:1.5;" x1="15" x2="15" y1="12.4551" y2="761.1592"/><polygon fill="#F1F1F1" points="498,208.4932,595,208.4932,607,220.4932,595,232.4932,498,232.4932,486,220.4932,498,208.4932" style="stroke:#181818;stroke-width:0.5;"/><text fill="#000000" font-family="sans-serif" font-size="11" lengthAdjust="spacing" textLength="35" x="550.5" y="243.9121">Ventas</text><text fill="#000000" font-family="sans-serif" font-size="11" lengthAdjust="spacing" textLength="97" x="498" y="224.9941">&#191;Qu&#233; tipo de datos?</text><rect fill="#F1F1F1" height="35.0938" rx="12.5" ry="12.5" style="stroke:#181818;stroke-width:0.5;" width="237" x="428" y="266.3291"/><text fill="#000000" font-family="sans-serif" font-size="12" lengthAdjust="spacing" textLength="217" x="438" y="288.7861">Llamar a ServicioVenta.obtenerVentas()</text><polygon fill="#F1F1F1" points="786,208.4932,829,208.4932,841,220.4932,829,232.4932,786,232.4932,774,220.4932,786,208.4932" style="stroke:#181818;stroke-width:0.5;"/><text fill="#000000" font-family="sans-serif" font-size="11" lengthAdjust="spacing" textLength="43" x="786" y="224.9941">Compras</text><rect fill="#F1F1F1" height="35.0938" rx="12.5" ry="12.5" style="stroke:#181818;stroke-width:0.5;" width="265" x="675" y="252.4932"/><text fill="#000000" font-family="sans-serif" font-size="12" lengthAdjust="spacing" textLength="245" x="685" y="274.9502">Llamar a ServicioCompra.obtenerCompras()</text><polygon fill="#F1F1F1" points="1065,208.4932,1112,208.4932,1124,220.4932,1112,232.4932,1065,232.4932,1053,220.4932,1065,208.4932" style="stroke:#181818;stroke-width:0.5;"/><text fill="#000000" font-family="sans-serif" font-size="11" lengthAdjust="spacing" textLength="47" x="1065" y="224.9941">Inventario</text><text fill="#000000" font-family="sans-serif" font-size="11" lengthAdjust="spacing" textLength="58" x="1124" y="218.0762">Contabilidad</text><rect fill="#F1F1F1" height="35.0938" rx="12.5" ry="12.5" style="stroke:#181818;stroke-width:0.5;" width="277" x="950" y="252.4932"/><text fill="#000000" font-family="sans-serif" font-size="12" lengthAdjust="spacing" textLength="257" x="960" y="274.9502">Llamar a ServicioInventario.obtenerProductos()</text><rect fill="#F1F1F1" height="35.0938" rx="12.5" ry="12.5" style="stroke:#181818;stroke-width:0.5;" width="465" x="1237" y="262.4111"/><text fill="#000000" font-family="sans-serif" font-size="12" lengthAdjust="spacing" textLength="445" x="1247" y="284.8682">Llamar a ServicioCompra.obtenerComprasPorEstado(APROBADA, CANCELADA)</text><rect fill="#F1F1F1" height="35.0938" rx="12.5" ry="12.5" style="stroke:#181818;stroke-width:0.5;" width="166" x="977" y="555.668"/><text fill="#000000" font-family="sans-serif" font-size="12" lengthAdjust="spacing" textLength="146" x="987" y="578.125">Armar reporte consolidado</text><line style="stroke:#000000;stroke-width:1.5;" x1="422" x2="422" y1="12.4551" y2="761.1592"/><rect fill="#F1F1F1" height="35.0938" rx="12.5" ry="12.5" style="stroke:#181818;stroke-width:0.5;" width="113" x="1728" y="372.1768"/><text fill="#000000" font-family="sans-serif" font-size="12" lengthAdjust="spacing" textLength="93" x="1738" y="394.6338">Conectar a la BD</text><rect fill="#F1F1F1" height="35.0938" rx="12.5" ry="12.5" style="stroke:#181818;stroke-width:0.5;" width="115" x="1727" y="427.2705"/><text fill="#000000" font-family="sans-serif" font-size="12" lengthAdjust="spacing" textLength="95" x="1737" y="449.7275">Ejecutar consulta</text><rect fill="#F1F1F1" height="35.0938" rx="12.5" ry="12.5" style="stroke:#181818;stroke-width:0.5;" width="145" x="1712" y="482.3643"/><text fill="#000000" font-family="sans-serif" font-size="12" lengthAdjust="spacing" textLength="125" x="1722" y="504.8213">Retornar lista de datos</text><line style="stroke:#000000;stroke-width:1.5;" x1="1706" x2="1706" y1="12.4551" y2="761.1592"/><line style="stroke:#000000;stroke-width:1.5;" x1="1861" x2="1861" y1="12.4551" y2="761.1592"/><line style="stroke:#181818;stroke-width:1.0;" x1="219.5" x2="219.5" y1="60.0957" y2="80.0957"/><polygon fill="#181818" points="215.5,70.0957,219.5,80.0957,223.5,70.0957,219.5,74.0957" style="stroke:#181818;stroke-width:1.0;"/><line style="stroke:#181818;stroke-width:1.0;" x1="219.5" x2="219.5" y1="115.1895" y2="135.1895"/><polygon fill="#181818" points="215.5,125.1895,219.5,135.1895,223.5,125.1895,219.5,129.1895" style="stroke:#181818;stroke-width:1.0;"/><line style="stroke:#181818;stroke-width:1.0;" x1="219.5" x2="219.5" y1="664.0654" y2="684.0654"/><polygon fill="#181818" points="215.5,674.0654,219.5,684.0654,223.5,674.0654,219.5,678.0654" style="stroke:#181818;stroke-width:1.0;"/><line style="stroke:#181818;stroke-width:1.0;" x1="219.5" x2="219.5" y1="719.1592" y2="739.1592"/><polygon fill="#181818" points="215.5,729.1592,219.5,739.1592,223.5,729.1592,219.5,733.1592" style="stroke:#181818;stroke-width:1.0;"/><line style="stroke:#181818;stroke-width:1.0;" x1="546.5" x2="546.5" y1="232.4932" y2="266.3291"/><polygon fill="#181818" points="542.5,256.3291,546.5,266.3291,550.5,256.3291,546.5,260.3291" style="stroke:#181818;stroke-width:1.0;"/><line style="stroke:#181818;stroke-width:1.0;" x1="546.5" x2="546.5" y1="301.4229" y2="352.1768"/><polygon fill="#181818" points="542.5,342.1768,546.5,352.1768,550.5,342.1768,546.5,346.1768" style="stroke:#181818;stroke-width:1.0;"/><text fill="#000000" font-family="sans-serif" font-size="11" lengthAdjust="spacing" textLength="81" x="550.5" y="330.6768">VentaRepository</text><line style="stroke:#181818;stroke-width:1.0;" x1="807.5" x2="807.5" y1="232.4932" y2="252.4932"/><polygon fill="#181818" points="803.5,242.4932,807.5,252.4932,811.5,242.4932,807.5,246.4932" style="stroke:#181818;stroke-width:1.0;"/><line style="stroke:#181818;stroke-width:1.0;" x1="807.5" x2="807.5" y1="287.5869" y2="352.1768"/><polygon fill="#181818" points="803.5,342.1768,807.5,352.1768,811.5,342.1768,807.5,346.1768" style="stroke:#181818;stroke-width:1.0;"/><text fill="#000000" font-family="sans-serif" font-size="11" lengthAdjust="spacing" textLength="89" x="811.5" y="323.7588">CompraRepository</text><line style="stroke:#181818;stroke-width:1.0;" x1="1088.5" x2="1088.5" y1="232.4932" y2="252.4932"/><polygon fill="#181818" points="1084.5,242.4932,1088.5,252.4932,1092.5,242.4932,1088.5,246.4932" style="stroke:#181818;stroke-width:1.0;"/><line style="stroke:#181818;stroke-width:1.0;" x1="1088.5" x2="1088.5" y1="287.5869" y2="352.1768"/><polygon fill="#181818" points="1084.5,342.1768,1088.5,352.1768,1092.5,342.1768,1088.5,346.1768" style="stroke:#181818;stroke-width:1.0;"/><text fill="#000000" font-family="sans-serif" font-size="11" lengthAdjust="spacing" textLength="95" x="1092.5" y="323.7588">ProductoRepository</text><line style="stroke:#181818;stroke-width:1.0;" x1="607" x2="774" y1="220.4932" y2="220.4932"/><polygon fill="#181818" points="764,216.4932,774,220.4932,764,224.4932,768,220.4932" style="stroke:#181818;stroke-width:1.0;"/><line style="stroke:#181818;stroke-width:1.0;" x1="841" x2="1053" y1="220.4932" y2="220.4932"/><polygon fill="#181818" points="1043,216.4932,1053,220.4932,1043,224.4932,1047,220.4932" style="stroke:#181818;stroke-width:1.0;"/><line style="stroke:#181818;stroke-width:1.0;" x1="1060" x2="546.5" y1="193.4932" y2="193.4932"/><line style="stroke:#181818;stroke-width:1.0;" x1="546.5" x2="546.5" y1="193.4932" y2="208.4932"/><polygon fill="#181818" points="542.5,198.4932,546.5,208.4932,550.5,198.4932,546.5,202.4932" style="stroke:#181818;stroke-width:1.0;"/><line style="stroke:#181818;stroke-width:1.0;" x1="1124" x2="1469.5" y1="220.4932" y2="220.4932"/><line style="stroke:#181818;stroke-width:1.0;" x1="1469.5" x2="1469.5" y1="220.4932" y2="262.4111"/><polygon fill="#181818" points="1465.5,252.4111,1469.5,262.4111,1473.5,252.4111,1469.5,256.4111" style="stroke:#181818;stroke-width:1.0;"/><line style="stroke:#181818;stroke-width:1.0;" x1="1469.5" x2="1469.5" y1="297.5049" y2="352.1768"/><polygon fill="#181818" points="1465.5,342.1768,1469.5,352.1768,1473.5,342.1768,1469.5,346.1768" style="stroke:#181818;stroke-width:1.0;"/><text fill="#000000" font-family="sans-serif" font-size="11" lengthAdjust="spacing" textLength="89" x="1473.5" y="328.7178">CompraRepository</text><line style="stroke:#181818;stroke-width:1.0;" x1="546.5" x2="1469.5" y1="352.1768" y2="352.1768"/><line style="stroke:#181818;stroke-width:1.0;" x1="1784.5" x2="1784.5" y1="407.2705" y2="427.2705"/><polygon fill="#181818" points="1780.5,417.2705,1784.5,427.2705,1788.5,417.2705,1784.5,421.2705" style="stroke:#181818;stroke-width:1.0;"/><line style="stroke:#181818;stroke-width:1.0;" x1="1784.5" x2="1784.5" y1="462.3643" y2="482.3643"/><polygon fill="#181818" points="1780.5,472.3643,1784.5,482.3643,1788.5,472.3643,1784.5,476.3643" style="stroke:#181818;stroke-width:1.0;"/><line style="stroke:#181818;stroke-width:1.0;" x1="219.5" x2="219.5" y1="170.2832" y2="193.4932"/><line style="stroke:#181818;stroke-width:1.0;" x1="219.5" x2="1060" y1="193.4932" y2="193.4932"/><line style="stroke:#181818;stroke-width:1.0;" x1="1060" x2="1060" y1="193.4932" y2="193.4932"/><text fill="#000000" font-family="sans-serif" font-size="11" lengthAdjust="spacing" textLength="45" x="223.5" y="186.9932">Servicios</text><line style="stroke:#181818;stroke-width:1.0;" x1="1060" x2="1060" y1="352.1768" y2="357.1768"/><line style="stroke:#181818;stroke-width:1.0;" x1="1060" x2="1784.5" y1="357.1768" y2="357.1768"/><line style="stroke:#181818;stroke-width:1.0;" x1="1784.5" x2="1784.5" y1="357.1768" y2="372.1768"/><polygon fill="#181818" points="1780.5,362.1768,1784.5,372.1768,1788.5,362.1768,1784.5,366.1768" style="stroke:#181818;stroke-width:1.0;"/><line style="stroke:#181818;stroke-width:1.0;" x1="1784.5" x2="1784.5" y1="517.458" y2="540.668"/><line style="stroke:#181818;stroke-width:1.0;" x1="1784.5" x2="1060" y1="540.668" y2="540.668"/><line style="stroke:#181818;stroke-width:1.0;" x1="1060" x2="1060" y1="540.668" y2="555.668"/><polygon fill="#181818" points="1056,545.668,1060,555.668,1064,545.668,1060,549.668" style="stroke:#181818;stroke-width:1.0;"/><text fill="#000000" font-family="sans-serif" font-size="11" lengthAdjust="spacing" textLength="45" x="1788.5" y="534.168">Servicios</text><line style="stroke:#181818;stroke-width:1.0;" x1="1060" x2="1060" y1="590.7617" y2="613.9717"/><line style="stroke:#181818;stroke-width:1.0;" x1="1060" x2="219.5" y1="613.9717" y2="613.9717"/><line style="stroke:#181818;stroke-width:1.0;" x1="219.5" x2="219.5" y1="613.9717" y2="628.9717"/><polygon fill="#181818" points="215.5,618.9717,219.5,628.9717,223.5,618.9717,219.5,622.9717" style="stroke:#181818;stroke-width:1.0;"/><text fill="#000000" font-family="sans-serif" font-size="11" lengthAdjust="spacing" textLength="87" x="1064" y="607.4717">Usuario (Gerente)</text><text fill="#000000" font-family="sans-serif" font-size="18" lengthAdjust="spacing" textLength="144" x="146.5" y="31.1406">Usuario (Gerente)</text><text fill="#000000" font-family="sans-serif" font-size="18" lengthAdjust="spacing" textLength="73" x="1027.5" y="31.1406">Servicios</text><text fill="#000000" font-family="sans-serif" font-size="18" lengthAdjust="spacing" textLength="100" x="1733.5" y="31.1406">Repositorios</text><!--SRC=[ZLBBJiCm4BpxA_QOIi07918eVGWXLL1QmTrrjc3aUYFRgGJg3t7c0v3eZx5EchIK277AUjQUcStEzi5Nqcc2v1eTse23hV11kY3I1HcjT93mX1QTTE2m91SG2cJ81xtxi1bVGuDAQR8IWYufTWiPo4Foo7pIdy68rgMBnOtTH8Zb8iZLKXjTo6AGYVDBMA3Ri23vJ8XjTzWAlOBaw_E-sht_5BWQG7X6s-eC140wDNBDJcL7LlSkQ1dY3Ct5XEK0MB0-pdaehmEvrqoWyHZLzeRx6PjcIxc_sd4svpxIm_3zl8T-oprpL5IA9-tOM-IKFre- -ft_zpqZD-5r5vJai_dTC1_dl9dyTZIPSld7JBRGAzvIXzMBIja4gb2h6Wd3CQTZyeAgYf0YwoiJ96Dpv1UMCQDPkzldQGYECv3cRdsKm4X6zQnKl_eLuXYXdcIpjD9Bx7XMsah3ZdB-w3S9sgw8XLICDfJISQHftJZaXvv3ZcpC1oh5Dm00]--></g></svg>