<?xml version="1.0" encoding="us-ascii" standalone="no"?><svg xmlns="http://www.w3.org/2000/svg" xmlns:xlink="http://www.w3.org/1999/xlink" contentStyleType="text/css" height="540px" preserveAspectRatio="none" style="width:1698px;height:540px;background:#FFFFFF;" version="1.1" viewBox="0 0 1698 540" width="1698px" zoomAndPan="magnify"><defs/><g><text fill="#000000" font-family="sans-serif" font-size="14" font-weight="bold" lengthAdjust="spacing" textLength="270" x="707.25" y="24.5332">Diagrama de tarjetas CRC - Gesti&#243;n360</text><g id="elem_Cliente"><rect fill="#87CEFA" height="117.6563" style="stroke:#181818;stroke-width:0.5;" width="342" x="7" y="230.6094"/><text fill="#000000" font-family="sans-serif" font-size="14" lengthAdjust="spacing" textLength="44" x="156" y="247.1426">Cliente</text><line style="stroke:#181818;stroke-width:1.0;" x1="7" x2="349" y1="252.2188" y2="252.2188"/><text fill="#000000" font-family="sans-serif" font-size="14" lengthAdjust="spacing" textLength="120" x="66" y="268.752">Responsabilidades</text><text fill="#000000" font-family="sans-serif" font-size="14" lengthAdjust="spacing" textLength="94" x="250" y="268.752">Colaboradores</text><line style="stroke:#181818;stroke-width:1.0;" x1="245" x2="245" y1="252.2188" y2="273.8281"/><line style="stroke:#181818;stroke-width:1.0;" x1="7" x2="349" y1="273.8281" y2="273.8281"/><text fill="#000000" font-family="sans-serif" font-size="14" lengthAdjust="spacing" textLength="180" x="12" y="290.3613">Almacenar datos personales</text><text fill="#000000" font-family="sans-serif" font-size="14" lengthAdjust="spacing" textLength="165" x="12" y="307.9707">Obtener nombre completo</text><text fill="#000000" font-family="sans-serif" font-size="14" lengthAdjust="spacing" textLength="228" x="12" y="325.5801">Registrar, actualizar, eliminar cliente</text><text fill="#000000" font-family="sans-serif" font-size="14" lengthAdjust="spacing" textLength="174" x="12" y="343.1895">Buscar por nombre/apellido</text><text fill="#000000" font-family="sans-serif" font-size="14" lengthAdjust="spacing" textLength="37" x="250" y="290.3613">Venta</text><line style="stroke:#181818;stroke-width:1.0;" x1="245" x2="245" y1="273.8281" y2="348.2656"/></g><g id="elem_Empleado"><rect fill="#87CEFA" height="117.6563" style="stroke:#181818;stroke-width:0.5;" width="363" x="685.5" y="230.6094"/><text fill="#000000" font-family="sans-serif" font-size="14" lengthAdjust="spacing" textLength="63" x="835.5" y="247.1426">Empleado</text><line style="stroke:#181818;stroke-width:1.0;" x1="685.5" x2="1048.5" y1="252.2188" y2="252.2188"/><text fill="#000000" font-family="sans-serif" font-size="14" lengthAdjust="spacing" textLength="120" x="755" y="268.752">Responsabilidades</text><text fill="#000000" font-family="sans-serif" font-size="14" lengthAdjust="spacing" textLength="94" x="949.5" y="268.752">Colaboradores</text><line style="stroke:#181818;stroke-width:1.0;" x1="944.5" x2="944.5" y1="252.2188" y2="273.8281"/><line style="stroke:#181818;stroke-width:1.0;" x1="685.5" x2="1048.5" y1="273.8281" y2="273.8281"/><text fill="#000000" font-family="sans-serif" font-size="14" lengthAdjust="spacing" textLength="231" x="690.5" y="290.3613">Almacenar datos personales y cargo</text><text fill="#000000" font-family="sans-serif" font-size="14" lengthAdjust="spacing" textLength="165" x="690.5" y="307.9707">Obtener nombre completo</text><text fill="#000000" font-family="sans-serif" font-size="14" lengthAdjust="spacing" textLength="249" x="690.5" y="325.5801">Registrar, actualizar, eliminar empleado</text><text fill="#000000" font-family="sans-serif" font-size="14" lengthAdjust="spacing" textLength="161" x="690.5" y="343.1895">Buscar por nombre/cargo</text><text fill="#000000" font-family="sans-serif" font-size="14" lengthAdjust="spacing" textLength="48" x="949.5" y="290.3613">Usuario</text><text fill="#000000" font-family="sans-serif" font-size="14" lengthAdjust="spacing" textLength="37" x="949.5" y="307.9707">Venta</text><text fill="#000000" font-family="sans-serif" font-size="14" lengthAdjust="spacing" textLength="55" x="949.5" y="325.5801">Compra"</text><line style="stroke:#181818;stroke-width:1.0;" x1="944.5" x2="944.5" y1="273.8281" y2="348.2656"/></g><g id="elem_Rol"><rect fill="#F08080" height="82.4375" style="stroke:#181818;stroke-width:0.5;" width="234" x="400" y="248.1094"/><text fill="#000000" font-family="sans-serif" font-size="14" lengthAdjust="spacing" textLength="21" x="506.5" y="264.6426">Rol</text><line style="stroke:#181818;stroke-width:1.0;" x1="400" x2="634" y1="269.7188" y2="269.7188"/><text fill="#000000" font-family="sans-serif" font-size="14" lengthAdjust="spacing" textLength="120" x="405" y="286.252">Responsabilidades</text><text fill="#000000" font-family="sans-serif" font-size="14" lengthAdjust="spacing" textLength="94" x="535" y="286.252">Colaboradores</text><line style="stroke:#181818;stroke-width:1.0;" x1="530" x2="530" y1="269.7188" y2="291.3281"/><line style="stroke:#181818;stroke-width:1.0;" x1="400" x2="634" y1="291.3281" y2="291.3281"/><text fill="#000000" font-family="sans-serif" font-size="14" lengthAdjust="spacing" textLength="102" x="414" y="307.8613">Definir permisos</text><text fill="#000000" font-family="sans-serif" font-size="14" lengthAdjust="spacing" textLength="48" x="535" y="307.8613">Usuario</text><text fill="#000000" font-family="sans-serif" font-size="14" lengthAdjust="spacing" textLength="63" x="535" y="325.4707">Empleado</text><line style="stroke:#181818;stroke-width:1.0;" x1="530" x2="530" y1="291.3281" y2="330.5469"/></g><g id="elem_Usuario"><rect fill="#87CEFA" height="117.6563" style="stroke:#181818;stroke-width:0.5;" width="270" x="557" y="45.6094"/><text fill="#000000" font-family="sans-serif" font-size="14" lengthAdjust="spacing" textLength="48" x="668" y="62.1426">Usuario</text><line style="stroke:#181818;stroke-width:1.0;" x1="557" x2="827" y1="67.2188" y2="67.2188"/><text fill="#000000" font-family="sans-serif" font-size="14" lengthAdjust="spacing" textLength="120" x="580" y="83.752">Responsabilidades</text><text fill="#000000" font-family="sans-serif" font-size="14" lengthAdjust="spacing" textLength="94" x="728" y="83.752">Colaboradores</text><line style="stroke:#181818;stroke-width:1.0;" x1="723" x2="723" y1="67.2188" y2="88.8281"/><line style="stroke:#181818;stroke-width:1.0;" x1="557" x2="827" y1="88.8281" y2="88.8281"/><text fill="#000000" font-family="sans-serif" font-size="14" lengthAdjust="spacing" textLength="151" x="562" y="105.3613">Almacenar credenciales</text><text fill="#000000" font-family="sans-serif" font-size="14" lengthAdjust="spacing" textLength="144" x="562" y="122.9707">Asociar empleado y rol</text><text fill="#000000" font-family="sans-serif" font-size="14" lengthAdjust="spacing" textLength="156" x="562" y="140.5801">Autenticaci&#243;n de usuario</text><text fill="#000000" font-family="sans-serif" font-size="14" lengthAdjust="spacing" textLength="143" x="562" y="158.1895">Cambio de contrase&#241;a</text><text fill="#000000" font-family="sans-serif" font-size="14" lengthAdjust="spacing" textLength="63" x="728" y="105.3613">Empleado</text><text fill="#000000" font-family="sans-serif" font-size="14" lengthAdjust="spacing" textLength="21" x="728" y="122.9707">Rol</text><line style="stroke:#181818;stroke-width:1.0;" x1="723" x2="723" y1="88.8281" y2="163.2656"/></g><g id="elem_Categoria"><rect fill="#F08080" height="64.8281" style="stroke:#181818;stroke-width:0.5;" width="239" x="1054.5" y="442.1094"/><text fill="#000000" font-family="sans-serif" font-size="14" lengthAdjust="spacing" textLength="62" x="1143" y="458.6426">Categoria</text><line style="stroke:#181818;stroke-width:1.0;" x1="1054.5" x2="1293.5" y1="463.7188" y2="463.7188"/><text fill="#000000" font-family="sans-serif" font-size="14" lengthAdjust="spacing" textLength="120" x="1062" y="480.252">Responsabilidades</text><text fill="#000000" font-family="sans-serif" font-size="14" lengthAdjust="spacing" textLength="94" x="1194.5" y="480.252">Colaboradores</text><line style="stroke:#181818;stroke-width:1.0;" x1="1189.5" x2="1189.5" y1="463.7188" y2="485.3281"/><line style="stroke:#181818;stroke-width:1.0;" x1="1054.5" x2="1293.5" y1="485.3281" y2="485.3281"/><text fill="#000000" font-family="sans-serif" font-size="14" lengthAdjust="spacing" textLength="125" x="1059.5" y="501.8613">Clasificar productos</text><text fill="#000000" font-family="sans-serif" font-size="14" lengthAdjust="spacing" textLength="57" x="1194.5" y="501.8613">Producto</text><line style="stroke:#181818;stroke-width:1.0;" x1="1189.5" x2="1189.5" y1="485.3281" y2="506.9375"/></g><g id="elem_Producto"><rect fill="#90EE90" height="117.6563" style="stroke:#181818;stroke-width:0.5;" width="357" x="1099.5" y="230.6094"/><text fill="#000000" font-family="sans-serif" font-size="14" lengthAdjust="spacing" textLength="57" x="1249.5" y="247.1426">Producto</text><line style="stroke:#181818;stroke-width:1.0;" x1="1099.5" x2="1456.5" y1="252.2188" y2="252.2188"/><text fill="#000000" font-family="sans-serif" font-size="14" lengthAdjust="spacing" textLength="120" x="1166" y="268.752">Responsabilidades</text><text fill="#000000" font-family="sans-serif" font-size="14" lengthAdjust="spacing" textLength="94" x="1357.5" y="268.752">Colaboradores</text><line style="stroke:#181818;stroke-width:1.0;" x1="1352.5" x2="1352.5" y1="252.2188" y2="273.8281"/><line style="stroke:#181818;stroke-width:1.0;" x1="1099.5" x2="1456.5" y1="273.8281" y2="273.8281"/><text fill="#000000" font-family="sans-serif" font-size="14" lengthAdjust="spacing" textLength="212" x="1104.5" y="290.3613">Almacenar informaci&#243;n de produc</text><text fill="#000000" font-family="sans-serif" font-size="14" lengthAdjust="spacing" textLength="243" x="1104.5" y="307.9707">Registrar, actualizar, eliminar producto</text><text fill="#000000" font-family="sans-serif" font-size="14" lengthAdjust="spacing" textLength="173" x="1104.5" y="325.5801">Filtrarlos para ver los datos</text><text fill="#000000" font-family="sans-serif" font-size="14" lengthAdjust="spacing" textLength="98" x="1104.5" y="343.1895">Actualizar stock</text><text fill="#000000" font-family="sans-serif" font-size="14" lengthAdjust="spacing" textLength="62" x="1357.5" y="290.3613">Categor&#237;a</text><text fill="#000000" font-family="sans-serif" font-size="14" lengthAdjust="spacing" textLength="66" x="1357.5" y="307.9707">Proveedor</text><text fill="#000000" font-family="sans-serif" font-size="14" lengthAdjust="spacing" textLength="37" x="1357.5" y="325.5801">Venta</text><text fill="#000000" font-family="sans-serif" font-size="14" lengthAdjust="spacing" textLength="50" x="1357.5" y="343.1895">Compra</text><line style="stroke:#181818;stroke-width:1.0;" x1="1352.5" x2="1352.5" y1="273.8281" y2="348.2656"/></g><g id="elem_Proveedor"><rect fill="#87CEFA" height="82.4375" style="stroke:#181818;stroke-width:0.5;" width="352" x="1222" y="63.1094"/><text fill="#000000" font-family="sans-serif" font-size="14" lengthAdjust="spacing" textLength="66" x="1365" y="79.6426">Proveedor</text><line style="stroke:#181818;stroke-width:1.0;" x1="1222" x2="1574" y1="84.7188" y2="84.7188"/><text fill="#000000" font-family="sans-serif" font-size="14" lengthAdjust="spacing" textLength="120" x="1286" y="101.252">Responsabilidades</text><text fill="#000000" font-family="sans-serif" font-size="14" lengthAdjust="spacing" textLength="94" x="1475" y="101.252">Colaboradores</text><line style="stroke:#181818;stroke-width:1.0;" x1="1470" x2="1470" y1="84.7188" y2="106.3281"/><line style="stroke:#181818;stroke-width:1.0;" x1="1222" x2="1574" y1="106.3281" y2="106.3281"/><text fill="#000000" font-family="sans-serif" font-size="14" lengthAdjust="spacing" textLength="236" x="1227" y="122.8613">Almacenar informaci&#243;n del proveedor</text><text fill="#000000" font-family="sans-serif" font-size="14" lengthAdjust="spacing" textLength="238" x="1227" y="140.4707">Entregar/Reponer stock de productos</text><text fill="#000000" font-family="sans-serif" font-size="14" lengthAdjust="spacing" textLength="57" x="1475" y="122.8613">Producto</text><text fill="#000000" font-family="sans-serif" font-size="14" lengthAdjust="spacing" textLength="50" x="1475" y="140.4707">Compra</text><line style="stroke:#181818;stroke-width:1.0;" x1="1470" x2="1470" y1="106.3281" y2="145.5469"/></g><g id="elem_Venta"><rect fill="#90EE90" height="117.6563" style="stroke:#181818;stroke-width:0.5;" width="347" x="656.5" y="415.6094"/><text fill="#000000" font-family="sans-serif" font-size="14" lengthAdjust="spacing" textLength="37" x="811.5" y="432.1426">Venta</text><line style="stroke:#181818;stroke-width:1.0;" x1="656.5" x2="1003.5" y1="437.2188" y2="437.2188"/><text fill="#000000" font-family="sans-serif" font-size="14" lengthAdjust="spacing" textLength="120" x="718" y="453.752">Responsabilidades</text><text fill="#000000" font-family="sans-serif" font-size="14" lengthAdjust="spacing" textLength="94" x="904.5" y="453.752">Colaboradores</text><line style="stroke:#181818;stroke-width:1.0;" x1="899.5" x2="899.5" y1="437.2188" y2="458.8281"/><line style="stroke:#181818;stroke-width:1.0;" x1="656.5" x2="1003.5" y1="458.8281" y2="458.8281"/><text fill="#000000" font-family="sans-serif" font-size="14" lengthAdjust="spacing" textLength="233" x="661.5" y="475.3613">Registrar los datos correspondientes</text><text fill="#000000" font-family="sans-serif" font-size="14" lengthAdjust="spacing" textLength="83" x="661.5" y="492.9707">Calcular total</text><text fill="#000000" font-family="sans-serif" font-size="14" lengthAdjust="spacing" textLength="122" x="661.5" y="510.5801">Modificar sus datos</text><text fill="#000000" font-family="sans-serif" font-size="14" lengthAdjust="spacing" textLength="107" x="661.5" y="528.1895">Consultar ventas</text><text fill="#000000" font-family="sans-serif" font-size="14" lengthAdjust="spacing" textLength="44" x="904.5" y="475.3613">Cliente</text><text fill="#000000" font-family="sans-serif" font-size="14" lengthAdjust="spacing" textLength="57" x="904.5" y="492.9707">Producto</text><text fill="#000000" font-family="sans-serif" font-size="14" lengthAdjust="spacing" textLength="63" x="904.5" y="510.5801">Empleado</text><line style="stroke:#181818;stroke-width:1.0;" x1="899.5" x2="899.5" y1="458.8281" y2="533.2656"/></g><g id="elem_Compra"><rect fill="#90EE90" height="117.6563" style="stroke:#181818;stroke-width:0.5;" width="347" x="1344.5" y="415.6094"/><text fill="#000000" font-family="sans-serif" font-size="14" lengthAdjust="spacing" textLength="50" x="1493" y="432.1426">Compra</text><line style="stroke:#181818;stroke-width:1.0;" x1="1344.5" x2="1691.5" y1="437.2188" y2="437.2188"/><text fill="#000000" font-family="sans-serif" font-size="14" lengthAdjust="spacing" textLength="120" x="1406" y="453.752">Responsabilidades</text><text fill="#000000" font-family="sans-serif" font-size="14" lengthAdjust="spacing" textLength="94" x="1592.5" y="453.752">Colaboradores</text><line style="stroke:#181818;stroke-width:1.0;" x1="1587.5" x2="1587.5" y1="437.2188" y2="458.8281"/><line style="stroke:#181818;stroke-width:1.0;" x1="1344.5" x2="1691.5" y1="458.8281" y2="458.8281"/><text fill="#000000" font-family="sans-serif" font-size="14" lengthAdjust="spacing" textLength="233" x="1349.5" y="475.3613">Registrar los datos correspondientes</text><text fill="#000000" font-family="sans-serif" font-size="14" lengthAdjust="spacing" textLength="83" x="1349.5" y="492.9707">Calcular total</text><text fill="#000000" font-family="sans-serif" font-size="14" lengthAdjust="spacing" textLength="122" x="1349.5" y="510.5801">Modificar sus datos</text><text fill="#000000" font-family="sans-serif" font-size="14" lengthAdjust="spacing" textLength="119" x="1349.5" y="528.1895">Consultar compras</text><text fill="#000000" font-family="sans-serif" font-size="14" lengthAdjust="spacing" textLength="63" x="1592.5" y="475.3613">Empleado</text><text fill="#000000" font-family="sans-serif" font-size="14" lengthAdjust="spacing" textLength="66" x="1592.5" y="492.9707">Proveedor</text><text fill="#000000" font-family="sans-serif" font-size="14" lengthAdjust="spacing" textLength="57" x="1592.5" y="510.5801">Producto</text><line style="stroke:#181818;stroke-width:1.0;" x1="1587.5" x2="1587.5" y1="458.8281" y2="533.2656"/></g><!--link Cliente to Venta--><g id="link_Cliente_Venta"><path codeLine="49" d="M362.8417,348.3577 C368.5317,350.0477 368.43,349.9994 374,351.6094 C464,377.7094 558.7954,403.2205 642.5654,425.1405 " fill="none" id="Cliente-Venta" style="stroke:#181818;stroke-width:1.0;"/><polygon fill="#181818" points="357.09,346.6494,364.5786,353.0463,361.8831,348.073,366.8564,345.3774,357.09,346.6494" style="stroke:#181818;stroke-width:1.0;"/><polygon fill="#181818" points="648.37,426.6594,640.6757,420.5114,643.5329,425.3936,638.6506,428.2508,648.37,426.6594" style="stroke:#181818;stroke-width:1.0;"/></g><!--link Empleado to Venta--><g id="link_Empleado_Venta"><path codeLine="51" d="M853.3386,357.6899 C849.4486,376.8899 847.5614,386.2889 843.6714,405.4889 " fill="none" id="Empleado-Venta" style="stroke:#181818;stroke-width:1.0;"/><polygon fill="#181818" points="854.53,351.8094,848.8225,359.8359,853.5372,356.7098,856.6632,361.4244,854.53,351.8094" style="stroke:#181818;stroke-width:1.0;"/><polygon fill="#181818" points="842.48,411.3694,848.1875,403.3429,843.4728,406.4689,840.3468,401.7543,842.48,411.3694" style="stroke:#181818;stroke-width:1.0;"/></g><!--link Empleado to Compra--><g id="link_Empleado_Compra"><path codeLine="53" d="M1062.471,348.4657 C1068.301,350.0857 1068.3,350.0694 1074,351.6094 C1182.21,380.9194 1210.95,381.7094 1319,411.6094 C1324.75,413.1994 1324.8209,413.191 1330.7009,414.871 " fill="none" id="Empleado-Compra" style="stroke:#181818;stroke-width:1.0;"/><polygon fill="#181818" points="1056.69,346.8594,1064.2905,353.1229,1061.5075,348.198,1066.4324,345.415,1056.69,346.8594" style="stroke:#181818;stroke-width:1.0;"/><polygon fill="#181818" points="1336.47,416.5194,1328.9152,410.2008,1331.6624,415.1458,1326.7174,417.893,1336.47,416.5194" style="stroke:#181818;stroke-width:1.0;"/></g><!--link Usuario to Empleado--><g id="link_Usuario_Empleado"><path codeLine="55" d="M755.1467,171.1458 C773.5067,190.3458 785.4533,202.8329 803.8133,222.0329 " fill="none" id="Usuario-Empleado" style="stroke:#181818;stroke-width:1.0;"/><polygon fill="#181818" points="751,166.8094,754.3291,176.0785,754.4556,170.4231,760.111,170.5496,751,166.8094" style="stroke:#181818;stroke-width:1.0;"/><polygon fill="#181818" points="807.96,226.3694,804.6309,217.1002,804.5044,222.7557,798.849,222.6292,807.96,226.3694" style="stroke:#181818;stroke-width:1.0;"/></g><!--link Usuario to Rol--><g id="link_Usuario_Rol"><path codeLine="57" d="M628.8535,171.146 C604.6435,196.466 585.457,216.5232 563.317,239.6732 " fill="none" id="Usuario-Rol" style="stroke:#181818;stroke-width:1.0;"/><polygon fill="#181818" points="633,166.8094,623.8891,170.55,629.5446,170.4232,629.6713,176.0787,633,166.8094" style="stroke:#181818;stroke-width:1.0;"/><polygon fill="#181818" points="559.17,244.0094,568.2813,240.2698,562.6258,240.3959,562.4997,234.7404,559.17,244.0094" style="stroke:#181818;stroke-width:1.0;"/></g><!--link Producto to Venta--><g id="link_Producto_Venta"><path codeLine="59" d="M1121.7057,353.9488 C1074.4457,373.2588 1033.4043,390.02 986.1443,409.33 " fill="none" id="Producto-Venta" style="stroke:#181818;stroke-width:1.0;"/><polygon fill="#181818" points="1127.26,351.6794,1117.4157,351.3807,1122.6315,353.5706,1120.4416,358.7863,1127.26,351.6794" style="stroke:#181818;stroke-width:1.0;"/><polygon fill="#181818" points="980.59,411.5994,990.4343,411.8981,985.2185,409.7082,987.4084,404.4924,980.59,411.5994" style="stroke:#181818;stroke-width:1.0;"/></g><!--link Producto to Categoria--><g id="link_Producto_Categoria"><path codeLine="61" d="M1239.9745,357.0253 C1223.6345,385.7653 1210.7246,408.4829 1196.8746,432.8529 " fill="none" id="Producto-Categoria" style="stroke:#181818;stroke-width:1.0;"/><polygon fill="#181818" points="1242.94,351.8094,1235.0145,357.6563,1240.4688,356.156,1241.969,361.6103,1242.94,351.8094" style="stroke:#181818;stroke-width:1.0;"/><polygon fill="#181818" points="1193.91,438.0694,1201.8345,432.2211,1196.3805,433.7224,1194.8793,428.2683,1193.91,438.0694" style="stroke:#181818;stroke-width:1.0;"/></g><!--link Producto to Compra--><g id="link_Producto_Compra"><path codeLine="63" d="M1363.6905,355.4484 C1388.8605,374.6484 1407.0795,388.5304 1432.2495,407.7304 " fill="none" id="Producto-Compra" style="stroke:#181818;stroke-width:1.0;"/><polygon fill="#181818" points="1358.92,351.8094,1363.6498,360.4482,1362.8954,354.8419,1368.5018,354.0875,1358.92,351.8094" style="stroke:#181818;stroke-width:1.0;"/><polygon fill="#181818" points="1437.02,411.3694,1432.2902,402.7305,1433.0446,408.3369,1427.4382,409.0912,1437.02,411.3694" style="stroke:#181818;stroke-width:1.0;"/></g><!--link Proveedor to Producto--><g id="link_Proveedor_Producto"><path codeLine="65" d="M1365.6604,154.4272 C1350.4704,177.5972 1338.2096,196.2816 1321.6296,221.5716 " fill="none" id="Proveedor-Producto" style="stroke:#181818;stroke-width:1.0;"/><polygon fill="#181818" points="1368.95,149.4094,1360.6704,154.743,1366.2086,153.5909,1367.3608,159.1292,1368.95,149.4094" style="stroke:#181818;stroke-width:1.0;"/><polygon fill="#181818" points="1318.34,226.5894,1326.6197,221.2558,1321.0814,222.4079,1319.9293,216.8696,1318.34,226.5894" style="stroke:#181818;stroke-width:1.0;"/></g><!--link Proveedor to Compra--><g id="link_Proveedor_Compra"><path codeLine="67" d="M1439.5503,154.0213 C1456.3303,175.9113 1471.06,198.8094 1482,226.6094 C1505.64,286.6694 1513.6195,354.4985 1516.4395,405.6085 " fill="none" id="Proveedor-Compra" style="stroke:#181818;stroke-width:1.0;"/><polygon fill="#181818" points="1435.9,149.2594,1438.2008,158.8357,1438.9419,153.2276,1444.55,153.9687,1435.9,149.2594" style="stroke:#181818;stroke-width:1.0;"/><polygon fill="#181818" points="1516.77,411.5994,1520.2681,402.3927,1516.4945,406.607,1512.2803,402.8334,1516.77,411.5994" style="stroke:#181818;stroke-width:1.0;"/></g><!--SRC=[pLLDZzGm3BttLrXmPRH8I9m0QRSxx0K46WIdNZoffuHDayf9LreGFua3uYVC7yD9ctQcuaip5swDwzhlFR-uGGT3SAsnOMmHQeA0_8a2UYWt9QpWXdpG-n_soTF7HT5Y1wNHP0F1mrUw-HZUtTvVcPxWIm6m8Tyvwt6hZQwn9W_FNq3f36uTO-sOl2J1fMbHaKM66eFpq15xPz58UcNVR0DPOh2ktJA1ScrdABZARgZHFZ3o8q0LUZJwStmceriTQwa1LMMlUg_atBbSv08xCWB8GOJpGRAm-3fGMSVgWknKBd-WSW-2ed5dCA8HtAyefTeHqNlV8sl9IRmgMqfvnWUPuCQPaLifiCs_CxkcdRQQ8wDMU-UFUcNPSfVnnVagAgQQhD9HmSfUUYUFin2YAJiZyLuK3LgXYhwCbkqpiXBRhG2feyvMjFMq_uwnvteIKoJ9k4iCr3ZMU9f6fK6lTpgDXbtTgp3ez7Oyv3RvF7QvOI9xYZhQxXotC-kXwT-DbC5LzgKsCSz4go8Zt8aluo6vLuITlWOVdBfDS0QDzj_4N4BaZaY0BUnsG7HuVxuJ5bnD995xhsMor21VR4XAKWOxAR8Omn9bWdxQB2QbPzN4QCpfspej81zDQ5Hl92cuWEBNrwuURUBxIUjIclL6TgqCmSPj6zlb7JP3NrwrWSf_X5ubGFxuZXqOvV0o5FdNyMorofkuc7RmxuFZ_8gyPr9mKkOu7AztCTsumvf7mUdgBvDphzdBAJpHMBx8-Jy1]--></g></svg>