<?xml version="1.0" encoding="us-ascii" standalone="no"?><svg xmlns="http://www.w3.org/2000/svg" xmlns:xlink="http://www.w3.org/1999/xlink" contentStyleType="text/css" height="753px" preserveAspectRatio="none" style="width:879px;height:753px;background:#FFFFFF;" version="1.1" viewBox="0 0 879 753" width="879px" zoomAndPan="magnify"><defs/><g><rect fill="none" height="22.6406" style="stroke:none;stroke-width:1.0;" width="846.5" x="15" y="12.4551"/><ellipse cx="148.5" cy="50.0957" fill="#222222" rx="10" ry="10" style="stroke:#222222;stroke-width:1.0;"/><rect fill="#F1F1F1" height="35.0938" rx="12.5" ry="12.5" style="stroke:#181818;stroke-width:0.5;" width="141" x="78" y="80.0957"/><text fill="#000000" font-family="sans-serif" font-size="12" lengthAdjust="spacing" textLength="121" x="88" y="102.5527">Solicita registrar venta</text><rect fill="#F1F1F1" height="35.0938" rx="12.5" ry="12.5" style="stroke:#181818;stroke-width:0.5;" width="255" x="21" y="135.1895"/><text fill="#000000" font-family="sans-serif" font-size="12" lengthAdjust="spacing" textLength="235" x="31" y="157.6465">Ingresa datos de Cliente, Productos y Total</text><rect fill="#F1F1F1" height="35.0938" rx="12.5" ry="12.5" style="stroke:#181818;stroke-width:0.5;" width="241" x="28" y="664.5693"/><text fill="#000000" font-family="sans-serif" font-size="12" lengthAdjust="spacing" textLength="221" x="38" y="687.0264">Recibe confirmaci&#243;n de venta registrada</text><ellipse cx="148.5" cy="730.6631" fill="none" rx="11" ry="11" style="stroke:#222222;stroke-width:1.0;"/><ellipse cx="148.5" cy="730.6631" fill="#222222" rx="6" ry="6" style="stroke:#222222;stroke-width:1.0;"/><line style="stroke:#000000;stroke-width:1.5;" x1="15" x2="15" y1="12.4551" y2="741.6631"/><rect fill="#F1F1F1" height="35.0938" rx="12.5" ry="12.5" style="stroke:#181818;stroke-width:0.5;" width="154" x="412.25" y="208.4932"/><text fill="#000000" font-family="sans-serif" font-size="12" lengthAdjust="spacing" textLength="134" x="422.25" y="230.9502">Validar datos de la venta</text><polygon fill="#F1F1F1" points="450.75,263.5869,527.75,263.5869,539.75,275.5869,527.75,287.5869,450.75,287.5869,438.75,275.5869,450.75,263.5869" style="stroke:#181818;stroke-width:0.5;"/><text fill="#000000" font-family="sans-serif" font-size="11" lengthAdjust="spacing" textLength="77" x="450.75" y="280.0879">&#191;Datos v&#225;lidos?</text><text fill="#000000" font-family="sans-serif" font-size="11" lengthAdjust="spacing" textLength="9" x="429.75" y="273.1699">S&#237;</text><text fill="#000000" font-family="sans-serif" font-size="11" lengthAdjust="spacing" textLength="13" x="539.75" y="273.1699">No</text><rect fill="#F1F1F1" height="35.0938" rx="12.5" ry="12.5" style="stroke:#181818;stroke-width:0.5;" width="122" x="327" y="297.5869"/><text fill="#000000" font-family="sans-serif" font-size="12" lengthAdjust="spacing" textLength="102" x="337" y="320.0439">Crear objeto Venta</text><rect fill="#F1F1F1" height="35.0938" rx="12.5" ry="12.5" style="stroke:#181818;stroke-width:0.5;" width="204" x="286" y="352.6807"/><text fill="#000000" font-family="sans-serif" font-size="12" lengthAdjust="spacing" textLength="184" x="296" y="375.1377">Invocar ventaRepo.guardar(venta)</text><rect fill="#F1F1F1" height="35.0938" rx="12.5" ry="12.5" style="stroke:#181818;stroke-width:0.5;" width="161" x="510" y="297.5869"/><text fill="#000000" font-family="sans-serif" font-size="12" lengthAdjust="spacing" textLength="141" x="520" y="320.0439">Notificar error al vendedor</text><ellipse cx="590.5" cy="363.6807" fill="none" rx="11" ry="11" style="stroke:#222222;stroke-width:1.0;"/><ellipse cx="590.5" cy="363.6807" fill="#222222" rx="6" ry="6" style="stroke:#222222;stroke-width:1.0;"/><rect fill="#F1F1F1" height="35.0938" rx="12.5" ry="12.5" style="stroke:#181818;stroke-width:0.5;" width="93" x="442.75" y="591.2656"/><text fill="#000000" font-family="sans-serif" font-size="12" lengthAdjust="spacing" textLength="73" x="452.75" y="613.7227">Notificar &#233;xito</text><line style="stroke:#000000;stroke-width:1.5;" x1="280" x2="280" y1="12.4551" y2="741.6631"/><rect fill="#F1F1F1" height="35.0938" rx="12.5" ry="12.5" style="stroke:#181818;stroke-width:0.5;" width="175" x="681" y="407.7744"/><text fill="#000000" font-family="sans-serif" font-size="12" lengthAdjust="spacing" textLength="155" x="691" y="430.2314">Conectar a la base de datos</text><rect fill="#F1F1F1" height="35.0938" rx="12.5" ry="12.5" style="stroke:#181818;stroke-width:0.5;" width="169" x="684" y="462.8682"/><text fill="#000000" font-family="sans-serif" font-size="12" lengthAdjust="spacing" textLength="149" x="694" y="485.3252">Insertar registro de la venta</text><rect fill="#F1F1F1" height="35.0938" rx="12.5" ry="12.5" style="stroke:#181818;stroke-width:0.5;" width="129" x="704" y="517.9619"/><text fill="#000000" font-family="sans-serif" font-size="12" lengthAdjust="spacing" textLength="109" x="714" y="540.4189">Confirmar inserci&#243;n</text><line style="stroke:#000000;stroke-width:1.5;" x1="675" x2="675" y1="12.4551" y2="741.6631"/><line style="stroke:#000000;stroke-width:1.5;" x1="860" x2="860" y1="12.4551" y2="741.6631"/><line style="stroke:#181818;stroke-width:1.0;" x1="148.5" x2="148.5" y1="60.0957" y2="80.0957"/><polygon fill="#181818" points="144.5,70.0957,148.5,80.0957,152.5,70.0957,148.5,74.0957" style="stroke:#181818;stroke-width:1.0;"/><line style="stroke:#181818;stroke-width:1.0;" x1="148.5" x2="148.5" y1="115.1895" y2="135.1895"/><polygon fill="#181818" points="144.5,125.1895,148.5,135.1895,152.5,125.1895,148.5,129.1895" style="stroke:#181818;stroke-width:1.0;"/><line style="stroke:#181818;stroke-width:1.0;" x1="148.5" x2="148.5" y1="699.6631" y2="719.6631"/><polygon fill="#181818" points="144.5,709.6631,148.5,719.6631,152.5,709.6631,148.5,713.6631" style="stroke:#181818;stroke-width:1.0;"/><line style="stroke:#181818;stroke-width:1.0;" x1="388" x2="388" y1="332.6807" y2="352.6807"/><polygon fill="#181818" points="384,342.6807,388,352.6807,392,342.6807,388,346.6807" style="stroke:#181818;stroke-width:1.0;"/><line style="stroke:#181818;stroke-width:1.0;" x1="590.5" x2="590.5" y1="332.6807" y2="352.6807"/><polygon fill="#181818" points="586.5,342.6807,590.5,352.6807,594.5,342.6807,590.5,346.6807" style="stroke:#181818;stroke-width:1.0;"/><line style="stroke:#181818;stroke-width:1.0;" x1="438.75" x2="388" y1="275.5869" y2="275.5869"/><line style="stroke:#181818;stroke-width:1.0;" x1="388" x2="388" y1="275.5869" y2="297.5869"/><polygon fill="#181818" points="384,287.5869,388,297.5869,392,287.5869,388,291.5869" style="stroke:#181818;stroke-width:1.0;"/><line style="stroke:#181818;stroke-width:1.0;" x1="539.75" x2="590.5" y1="275.5869" y2="275.5869"/><line style="stroke:#181818;stroke-width:1.0;" x1="590.5" x2="590.5" y1="275.5869" y2="297.5869"/><polygon fill="#181818" points="586.5,287.5869,590.5,297.5869,594.5,287.5869,590.5,291.5869" style="stroke:#181818;stroke-width:1.0;"/><line style="stroke:#181818;stroke-width:1.0;" x1="388" x2="388" y1="387.7744" y2="392.7744"/><line style="stroke:#181818;stroke-width:1.0;" x1="388" x2="768.5" y1="392.7744" y2="392.7744"/><line style="stroke:#181818;stroke-width:1.0;" x1="768.5" x2="768.5" y1="392.7744" y2="407.7744"/><polygon fill="#181818" points="764.5,397.7744,768.5,407.7744,772.5,397.7744,768.5,401.7744" style="stroke:#181818;stroke-width:1.0;"/><line style="stroke:#181818;stroke-width:1.0;" x1="489.25" x2="489.25" y1="243.5869" y2="263.5869"/><polygon fill="#181818" points="485.25,253.5869,489.25,263.5869,493.25,253.5869,489.25,257.5869" style="stroke:#181818;stroke-width:1.0;"/><line style="stroke:#181818;stroke-width:1.0;" x1="768.5" x2="768.5" y1="442.8682" y2="462.8682"/><polygon fill="#181818" points="764.5,452.8682,768.5,462.8682,772.5,452.8682,768.5,456.8682" style="stroke:#181818;stroke-width:1.0;"/><line style="stroke:#181818;stroke-width:1.0;" x1="768.5" x2="768.5" y1="497.9619" y2="517.9619"/><polygon fill="#181818" points="764.5,507.9619,768.5,517.9619,772.5,507.9619,768.5,511.9619" style="stroke:#181818;stroke-width:1.0;"/><line style="stroke:#181818;stroke-width:1.0;" x1="148.5" x2="148.5" y1="170.2832" y2="193.4932"/><line style="stroke:#181818;stroke-width:1.0;" x1="148.5" x2="489.25" y1="193.4932" y2="193.4932"/><line style="stroke:#181818;stroke-width:1.0;" x1="489.25" x2="489.25" y1="193.4932" y2="208.4932"/><polygon fill="#181818" points="485.25,198.4932,489.25,208.4932,493.25,198.4932,489.25,202.4932" style="stroke:#181818;stroke-width:1.0;"/><text fill="#000000" font-family="sans-serif" font-size="11" lengthAdjust="spacing" textLength="68" x="152.5" y="186.9932">ServicioVenta</text><line style="stroke:#181818;stroke-width:1.0;" x1="768.5" x2="768.5" y1="553.0557" y2="576.2656"/><line style="stroke:#181818;stroke-width:1.0;" x1="768.5" x2="489.25" y1="576.2656" y2="576.2656"/><line style="stroke:#181818;stroke-width:1.0;" x1="489.25" x2="489.25" y1="576.2656" y2="591.2656"/><polygon fill="#181818" points="485.25,581.2656,489.25,591.2656,493.25,581.2656,489.25,585.2656" style="stroke:#181818;stroke-width:1.0;"/><text fill="#000000" font-family="sans-serif" font-size="11" lengthAdjust="spacing" textLength="68" x="772.5" y="569.7656">ServicioVenta</text><line style="stroke:#181818;stroke-width:1.0;" x1="489.25" x2="489.25" y1="626.3594" y2="649.5693"/><line style="stroke:#181818;stroke-width:1.0;" x1="489.25" x2="148.5" y1="649.5693" y2="649.5693"/><line style="stroke:#181818;stroke-width:1.0;" x1="148.5" x2="148.5" y1="649.5693" y2="664.5693"/><polygon fill="#181818" points="144.5,654.5693,148.5,664.5693,152.5,654.5693,148.5,658.5693" style="stroke:#181818;stroke-width:1.0;"/><text fill="#000000" font-family="sans-serif" font-size="11" lengthAdjust="spacing" textLength="96" x="493.25" y="643.0693">Usuario (Vendedor)</text><text fill="#000000" font-family="sans-serif" font-size="18" lengthAdjust="spacing" textLength="156" x="69.5" y="31.1406">Usuario (Vendedor)</text><text fill="#000000" font-family="sans-serif" font-size="18" lengthAdjust="spacing" textLength="110" x="422.5" y="31.1406">ServicioVenta</text><text fill="#000000" font-family="sans-serif" font-size="18" lengthAdjust="spacing" textLength="132" x="701.5" y="31.1406">VentaRepository</text><!--SRC=[ZLAzJiCm4Dxz53Sc4l00gGH3MRfKg8NiRdmfXqokEhiHbV8oZ0nCF00IUJ7EfYqgC33cxhxVUBWBMol4KDJOENGivM12j19DjMHF3KKBWciAKQn0Zrsq4rFDkhLWiE1iv00EOUf9LtW6Dy9kswJf3cuvMZynvvUmHEcLY-ill1bE1eEfQkl9gS2HqDk36BLGVBnVvqK_FkiTXwiIuZrsK2p7rz80L5D1HVFg0IF3NaN7iwxdvk1xWHk-M6jS5Ihof4n7Qgy-h0D5bjt4e0y8nPmpzvmZjPHeK8G5h4zykQo43v4tHh-frLm_c3JPb3jij52mATFAAh76opbpaG4bRVSTysdsX6v97lM0qcL3urltlqQ_NOylJsecetx_xGJzwmrK2sneXT3i3MJbP2uxEpu9fzgvW4y0]--></g></svg>